<?xml version="1.0" standalone="no"?>
<!DOCTYPE svg PUBLIC "-//W3C//DTD SVG 20010904//EN"
 "http://www.w3.org/TR/2001/REC-SVG-20010904/DTD/svg10.dtd">
<svg version="1.0" xmlns="http://www.w3.org/2000/svg"
 width="626.000000pt" height="417.000000pt" viewBox="0 0 626.000000 417.000000"
 preserveAspectRatio="xMidYMid meet">

<g transform="translate(0.000000,417.000000) scale(0.100000,-0.100000)"
fill="#000000" stroke="none">
<path d="M0 4150 c0 -17 5 -19 28 -15 l27 5 -28 -11 c-28 -11 -36 -34 -14 -42
10 -4 10 -6 0 -6 -19 -1 -16 -51 2 -51 18 0 20 -16 3 -26 -7 -5 -8 -3 -3 6 5
8 4 11 -3 7 -15 -10 -15 -179 1 -189 9 -6 9 -8 0 -8 -10 0 -12 -184 -13 -831
0 -826 0 -830 20 -816 11 7 36 38 57 68 21 30 70 83 108 119 39 36 72 68 73
73 8 16 32 5 65 -32 67 -75 83 -134 53 -205 -14 -34 -22 -39 -86 -52 -33 -6
-34 -6 -19 12 25 29 30 52 13 58 -10 4 -12 2 -8 -6 5 -7 2 -9 -8 -5 -11 4 -18
-2 -22 -19 -4 -14 -12 -24 -18 -22 -13 5 -48 -26 -48 -42 0 -5 -7 -7 -15 -4
-9 4 -15 0 -15 -9 0 -9 -11 -25 -25 -36 -30 -23 -92 -19 -112 7 -11 13 -13 5
-13 -44 0 -50 4 -64 23 -82 25 -24 65 -28 113 -13 16 5 48 12 72 15 41 6 43 5
40 -16 -3 -23 -60 -68 -86 -68 -13 0 -13 3 -4 12 20 20 13 28 -15 17 -19 -7
-28 -6 -33 2 -6 8 -9 8 -15 0 -3 -7 -15 -9 -25 -6 -10 3 -21 1 -25 -5 -3 -5
-15 -10 -26 -10 -10 0 -19 -4 -19 -10 0 -6 18 -7 43 -4 38 5 69 0 162 -26 l30
-8 -32 -3 c-18 -1 -43 -3 -55 -3 -13 -1 -26 -5 -30 -11 -5 -6 -11 -5 -17 3 -4
8 -17 12 -27 11 -11 -2 -25 0 -31 4 -8 5 -13 4 -13 -2 0 -6 -7 -11 -15 -11 -9
0 -15 -9 -15 -24 0 -19 4 -22 23 -19 14 3 31 -2 40 -12 16 -15 16 -19 1 -48
-9 -18 -27 -46 -40 -64 l-24 -32 0 -810 0 -811 398 0 397 0 20 41 c23 48 114
131 167 154 l38 15 -12 -26 c-11 -22 -13 -24 -18 -8 -6 16 -7 15 -13 -6 -10
-38 2 -42 29 -10 14 16 39 39 55 51 25 18 31 19 43 6 12 -11 12 -17 3 -28 -9
-10 -8 -10 6 1 10 7 24 25 32 39 7 15 36 38 64 53 28 14 47 28 41 30 -17 5 19
48 41 48 11 0 30 6 42 14 12 8 47 17 77 21 48 6 59 4 80 -15 17 -15 20 -20 8
-16 -29 9 -21 -10 10 -23 l27 -13 -35 -19 c-21 -12 -26 -17 -12 -14 37 11 104
-4 98 -22 -3 -8 -2 -12 2 -9 24 14 128 -69 165 -133 17 -29 17 -31 1 -31 -13
0 -14 -3 -5 -13 6 -8 8 -16 5 -20 -3 -3 -3 -19 1 -36 l7 -31 2249 0 2249 0 0
2085 0 2085 -1599 0 -1598 0 5 -26 c4 -24 3 -25 -16 -15 -17 9 -21 8 -25 -7
-3 -12 -7 -9 -17 16 -11 30 -30 44 -30 23 0 -5 -12 -8 -27 -5 -23 4 -25 3 -13
-11 7 -8 17 -15 23 -15 6 0 34 -18 63 -40 46 -35 56 -39 79 -30 68 26 137 -2
148 -59 5 -22 17 -36 44 -50 49 -25 97 -77 112 -120 13 -41 14 -52 1 -29 -6 9
-34 24 -63 34 -28 9 -60 23 -69 31 -24 21 -54 12 -51 -15 3 -21 2 -21 -16 -4
-10 9 -16 21 -13 26 3 5 -2 7 -11 3 -10 -3 -17 -2 -17 2 0 5 -7 12 -16 15 -11
4 -15 2 -11 -8 4 -11 1 -13 -10 -9 -12 5 -14 3 -8 -8 6 -11 5 -12 -6 -1 -21
20 -28 14 -27 -23 1 -34 3 -35 40 -35 22 0 60 -9 86 -20 42 -19 51 -29 89
-102 24 -44 37 -76 30 -71 -14 11 -61 2 -63 -12 -1 -5 -5 -20 -8 -32 -6 -18
-2 -24 18 -29 37 -9 32 -24 -7 -24 -21 0 -44 9 -62 24 -25 21 -28 32 -33 98
-4 73 -4 75 26 100 l31 26 -51 6 c-84 11 -117 37 -131 101 -4 17 -5 17 -6 -3
-1 -21 -5 -23 -33 -18 l-33 5 28 -12 c26 -10 28 -15 23 -49 -4 -21 -20 -64
-37 -95 -37 -69 -62 -119 -76 -153 -10 -25 -10 -24 -37 19 -49 77 -51 90 -21
193 16 56 38 107 54 128 15 19 33 52 40 72 7 21 17 40 22 43 19 12 8 21 -21
17 -23 -3 -36 1 -50 18 -11 13 -20 26 -20 30 0 4 -9 10 -19 13 -13 3 -21 17
-26 46 l-7 41 -504 0 c-475 0 -503 -1 -498 -17 5 -17 5 -17 -6 0 -14 21 -70
24 -70 2 0 -30 -73 -48 -98 -23 -6 6 -21 13 -33 15 -19 3 -20 0 -14 -24 18
-76 61 -106 92 -66 7 9 19 13 29 9 10 -4 38 6 70 24 54 30 84 38 84 21 0 -12
-89 -90 -130 -114 l-30 -18 10 26 c9 24 9 25 -13 14 -12 -7 -35 -21 -52 -33
-16 -11 -34 -21 -40 -21 -17 0 -55 -29 -55 -42 0 -7 -7 -13 -15 -13 -8 0 -15
-7 -15 -15 0 -20 -153 -91 -171 -79 -5 3 -29 -2 -55 -11 -50 -17 -121 -16
-121 1 0 7 15 10 38 8 29 -3 59 7 126 41 105 52 176 102 167 116 -3 6 8 3 25
-5 17 -9 31 -13 31 -8 0 5 -15 16 -34 25 -26 12 -36 13 -39 4 -2 -8 -18 -3
-45 16 -23 15 -45 27 -48 27 -4 0 -22 -11 -40 -25 -18 -14 -37 -25 -43 -25
-14 0 -41 54 -41 82 0 19 -2 20 -10 8 -19 -29 -29 9 -14 52 17 48 13 50 -82
46 l-69 -3 -36 -75 c-58 -119 -96 -260 -105 -391 -5 -72 -10 -102 -14 -80 -3
24 -12 36 -29 43 -21 8 -22 7 -10 -8 12 -15 11 -16 -11 -9 -14 4 -29 12 -35
18 -7 7 -6 8 2 3 6 -3 15 -1 19 5 8 13 -16 31 -33 24 -7 -2 -13 0 -13 4 0 5
-9 7 -20 4 -11 -3 -17 -9 -14 -14 3 -5 0 -9 -7 -9 -8 0 -6 -6 4 -18 23 -26 21
-29 -13 -24 -23 3 -30 9 -30 27 0 13 -8 26 -17 30 -16 6 -15 8 5 16 14 5 20
13 16 20 -4 7 -3 9 3 6 5 -3 30 14 54 40 27 28 35 41 22 34 -13 -7 -23 -17
-24 -24 0 -7 -4 -3 -8 7 -6 17 -9 15 -20 -12 -8 -18 -18 -32 -23 -32 -5 0 -6
5 -2 11 4 8 0 8 -15 0 -11 -7 -21 -9 -21 -5 0 3 -8 -3 -17 -14 l-18 -21 -47
23 -47 24 15 -23 c14 -22 14 -24 -6 -35 -12 -7 -35 -10 -51 -8 -16 3 -31 0
-33 -6 -3 -7 -5 -6 -5 2 -1 6 -10 12 -21 12 -11 0 -19 -3 -19 -7 3 -19 -2 -33
-12 -33 -6 0 -9 9 -6 20 3 11 1 18 -4 14 -5 -3 -9 4 -9 15 0 12 -4 21 -10 21
-5 0 -14 10 -21 23 -11 21 -10 21 6 6 14 -14 22 -15 46 -6 16 6 29 17 29 25 0
7 -5 10 -11 6 -7 -4 -9 2 -7 16 2 17 -3 24 -19 26 -12 2 -23 -3 -27 -11 -3 -8
-17 -15 -31 -15 -17 0 -24 -4 -19 -12 4 -6 3 -8 -4 -4 -5 3 -12 1 -14 -6 -2
-6 -10 -8 -16 -4 -17 10 -15 26 3 26 8 0 15 4 15 8 0 5 -13 9 -30 9 -16 0 -30
-4 -30 -9 0 -4 -4 -8 -10 -8 -5 0 -7 7 -4 15 4 8 17 15 30 15 15 0 24 6 24 16
0 8 -4 12 -10 9 -6 -3 -10 1 -10 10 0 9 -6 15 -12 12 -7 -2 -26 2 -41 10 -28
14 -28 14 -17 -7 11 -20 10 -21 -7 -12 -14 9 -21 6 -31 -11 -13 -21 -13 -21
-7 7 5 26 4 28 -17 22 -13 -3 -30 -6 -38 -6 -13 0 -13 -2 0 -11 12 -9 12 -10
-3 -5 -10 3 -20 6 -22 6 -2 0 4 13 13 30 9 16 23 30 31 30 8 0 4 8 -10 20 -13
10 -19 19 -13 20 17 0 66 -49 59 -59 -3 -5 -1 -12 4 -16 12 -7 33 29 23 40 -4
4 10 5 31 2 35 -6 51 5 24 17 -6 3 0 5 15 3 19 -3 25 0 21 9 -3 9 -14 12 -29
8 -15 -4 -24 -2 -24 6 0 7 -8 9 -21 5 -16 -5 -19 -4 -14 5 5 8 3 11 -6 8 -21
-8 -49 10 -49 32 0 11 -4 20 -8 20 -18 0 -21 -14 -7 -34 21 -30 19 -36 -15
-36 -29 0 -37 16 -16 31 5 4 6 15 2 25 -6 15 -9 16 -16 5 -6 -10 -10 -1 -15
30 -8 53 -31 91 -44 71 -7 -11 -11 -10 -24 2 -11 12 -17 13 -20 3 -4 -9 -6 -9
-6 1 -2 22 -41 14 -41 -8z m2680 -12 c0 -7 -23 -39 -50 -71 -52 -61 -57 -71
-40 -82 6 -4 15 7 21 24 16 45 29 28 29 -38 0 -64 -26 -111 -61 -111 -10 0
-19 -5 -19 -11 0 -5 6 -7 13 -3 8 5 8 2 -2 -9 -14 -18 -46 -23 -55 -8 -3 5 4
12 17 16 l22 8 -23 4 c-13 3 -28 0 -35 -5 -7 -5 -21 -6 -32 -1 -11 4 -32 8
-46 8 -16 1 -33 12 -47 31 -26 35 -26 41 -7 107 26 87 99 121 198 91 40 -12
41 -12 71 25 32 38 46 46 46 25z m-2609 -17 c-11 -7 -9 -10 10 -14 23 -4 22
-4 -3 -6 -27 -1 -35 8 -21 22 3 4 11 7 17 7 6 0 5 -4 -3 -9z m49 -40 c11 -1
11 -4 2 -13 -9 -9 -15 -9 -23 -1 -6 6 -18 9 -25 6 -8 -3 -14 -1 -14 5 0 5 10
8 23 7 12 -1 29 -3 37 -4z m3 -53 c3 -8 -4 -13 -18 -13 -14 0 -21 5 -18 13 3
6 11 12 18 12 7 0 15 -6 18 -12z m-62 -12 c-9 -11 -8 -18 4 -30 15 -15 15 -17
-2 -24 -21 -8 -27 -39 -8 -39 7 0 11 7 8 16 -3 12 -2 12 7 -1 11 -18 36 -26
26 -9 -4 5 5 4 19 -2 26 -13 28 -28 4 -35 -12 -3 -12 -2 1 7 10 7 2 11 -35 13
-28 2 -49 8 -48 13 1 6 -2 15 -6 20 -13 18 11 85 30 85 9 0 9 -4 0 -14z m81
-41 c0 -5 -5 -11 -11 -13 -6 -2 -11 4 -11 13 0 9 5 15 11 13 6 -2 11 -8 11
-13z m152 -6 c-7 -11 -45 -11 -62 0 -9 5 1 8 27 8 22 0 38 -4 35 -8z m951 -5
c1 -5 5 -19 9 -32 5 -14 3 -28 -5 -38 -6 -8 -9 -18 -5 -21 4 -4 11 -1 16 7 8
13 10 12 10 -2 0 -20 -26 -48 -45 -48 -19 0 -26 62 -9 81 16 18 18 30 5 27 -5
-2 -8 2 -7 7 0 6 4 9 8 8 4 -2 4 5 1 13 -4 12 -2 15 8 12 8 -3 14 -9 14 -14z
m2167 -19 l53 -13 -40 -1 c-48 -1 -115 16 -115 30 0 5 11 7 25 3 13 -3 48 -12
77 -19z m-3242 11 c0 -2 -7 -7 -16 -10 -8 -3 -12 -2 -9 4 6 10 25 14 25 6z
m1571 -73 c52 -77 116 -148 159 -178 45 -31 47 -45 3 -22 -15 9 -46 24 -67 33
-53 24 -175 138 -152 142 17 4 23 22 6 22 -6 0 -5 10 2 25 6 14 13 25 14 25 2
0 18 -21 35 -47z m-1632 -33 c0 -9 -4 -8 -9 5 -5 11 -9 27 -9 35 0 9 4 8 9 -5
5 -11 9 -27 9 -35z m965 34 c16 -6 23 -44 8 -44 -18 0 -45 28 -38 38 8 14 9
14 30 6z m-908 -27 c4 -4 0 -7 -10 -7 -9 0 -14 -4 -11 -10 4 -6 -1 -7 -11 -3
-11 4 -13 8 -6 11 7 2 10 7 7 12 -6 10 21 7 31 -3z m1464 -104 c-7 -43 -19
-90 -27 -105 -12 -25 -12 -27 4 -21 11 4 14 3 9 -5 -4 -7 -18 -12 -32 -12
l-25 0 7 78 c4 49 13 84 23 96 9 10 15 20 14 22 -2 2 0 3 3 2 3 -2 10 5 16 15
18 33 21 9 8 -70z m-1470 37 c0 -5 -5 -10 -11 -10 -5 0 -7 5 -4 10 3 6 8 10
11 10 2 0 4 -4 4 -10z m40 6 c0 -3 -4 -8 -10 -11 -5 -3 -10 -1 -10 4 0 6 5 11
10 11 6 0 10 -2 10 -4z m92 -28 c-5 -19 -7 -20 -10 -5 -2 9 -10 17 -18 17 -8
0 -13 -5 -11 -11 1 -6 -4 -13 -11 -14 -7 -2 -8 -1 -3 1 6 3 7 12 4 20 -4 10 3
14 25 14 26 0 29 -3 24 -22z m108 -10 c0 -5 7 -8 15 -8 22 0 18 -17 -5 -23
-12 -3 -20 -14 -20 -27 0 -13 -4 -18 -11 -14 -6 3 -8 17 -5 30 4 14 2 24 -4
24 -5 0 -10 -4 -10 -10 0 -5 -4 -10 -10 -10 -14 0 -12 27 3 34 6 3 -1 3 -18 0
-22 -4 -26 -3 -16 4 16 12 81 11 81 0z m-120 -29 c0 -5 -12 -9 -27 -9 -27 1
-27 1 -9 15 19 14 36 12 36 -6z m185 -54 c2 -14 -1 -25 -6 -25 -5 0 -9 5 -9
10 0 6 -9 10 -21 10 -12 0 -19 5 -16 13 2 6 11 11 21 9 9 -2 16 3 16 9 0 22
13 1 15 -26z m289 -11 c1 -16 -3 -29 -9 -29 -5 0 -10 6 -10 14 0 8 -6 16 -13
19 -10 3 -10 7 -1 18 18 22 32 12 33 -22z m-554 0 c0 -8 -4 -14 -8 -14 -4 0
-8 9 -8 19 0 11 4 17 8 15 4 -3 8 -12 8 -20z m135 6 c0 -8 -5 -15 -12 -15 -6
0 -15 -3 -19 -7 -12 -12 -24 -9 -24 5 0 19 22 38 40 35 8 -2 15 -10 15 -18z
m261 -47 c-10 -11 -19 -7 -22 10 -2 15 0 16 12 6 8 -6 12 -14 10 -16z m281 21
c-3 -3 -12 -4 -19 -1 -8 3 -5 6 6 6 11 1 17 -2 13 -5z m-381 -38 c3 -20 1 -24
-11 -20 -12 5 -13 9 -4 20 9 11 8 14 -7 14 -16 0 -16 2 -4 10 18 11 20 9 26
-24z m314 -34 c0 -4 -6 -15 -14 -24 -10 -13 -15 -15 -24 -6 -13 13 -16 41 -6
51 8 7 44 -10 44 -21z m-150 8 c0 -5 -4 -10 -10 -10 -5 0 -10 5 -10 10 0 6 5
10 10 10 6 0 10 -4 10 -10z m226 3 c-10 -10 -46 -11 -46 -1 0 4 12 8 27 8 14
0 23 -3 19 -7z m1462 -32 c131 -33 258 -81 359 -136 39 -21 70 -32 80 -28 10
3 15 2 10 -2 -8 -9 20 -45 36 -45 6 0 35 -19 66 -42 30 -24 63 -48 73 -53 50
-29 166 -157 255 -283 45 -63 153 -273 196 -382 48 -122 100 -321 96 -372 -1
-18 2 -41 6 -52 24 -56 -30 -476 -71 -556 -7 -14 -22 -57 -32 -96 -18 -66 -27
-80 -93 -149 -10 -12 -19 -29 -19 -38 0 -10 -10 -29 -22 -42 -13 -14 -33 -36
-45 -50 -13 -13 -23 -28 -23 -32 0 -11 -69 -83 -80 -83 -4 0 -11 -12 -14 -26
-5 -17 -12 -24 -21 -20 -8 3 -17 1 -20 -4 -4 -6 0 -10 7 -10 9 -1 7 -5 -4 -14
-10 -7 -15 -16 -11 -19 3 -4 -1 -7 -10 -7 -17 0 -27 -4 -74 -28 -32 -17 -41
-15 -48 8 -13 42 -31 21 -31 -37 0 -55 0 -57 -38 -76 -21 -11 -54 -21 -74 -23
-35 -3 -67 -28 -57 -44 3 -4 -28 -22 -68 -40 -39 -18 -82 -42 -94 -53 -23 -20
-28 -15 -24 21 3 17 -16 15 -23 -3 -3 -8 -1 -15 4 -15 6 0 10 -6 10 -14 0 -10
-16 -17 -47 -21 -27 -4 -71 -10 -100 -14 -33 -5 -54 -4 -56 2 -2 6 -9 7 -17 2
-8 -5 -32 -8 -55 -6 -22 1 -54 -3 -70 -9 -21 -8 -31 -8 -33 -1 -5 16 -29 13
-36 -5 -3 -8 -11 -12 -16 -9 -8 5 -8 11 0 20 8 10 7 14 -2 18 -11 4 -11 9 0
27 9 14 10 26 4 32 -5 5 -6 24 -3 41 6 28 10 32 35 29 24 -3 28 -1 22 13 -3 9
-4 21 -1 25 8 14 66 -8 82 -30 11 -16 18 -18 34 -10 15 9 26 7 48 -9 29 -21
39 -19 121 17 l25 11 -25 1 c-14 1 -37 1 -53 0 -17 -1 -29 4 -33 14 -3 9 -12
16 -20 16 -8 0 -14 6 -14 14 0 8 -15 16 -37 20 -61 10 -68 12 -81 20 -6 4 -12
18 -12 32 0 15 -6 24 -15 24 -8 0 -15 -8 -15 -17 0 -14 -2 -15 -9 -4 -5 8 -11
9 -15 3 -3 -5 -17 -8 -31 -7 -14 2 -23 -1 -19 -7 3 -5 12 -7 20 -4 8 3 14 1
14 -4 0 -6 -6 -10 -12 -10 -9 0 -8 -4 2 -10 8 -5 10 -10 4 -10 -23 0 -65 -46
-58 -63 3 -10 1 -17 -5 -17 -6 0 -11 7 -11 15 0 8 -7 15 -16 15 -8 0 -12 5 -9
10 3 6 1 10 -4 10 -6 0 -11 -5 -11 -12 0 -8 -3 -9 -11 -1 -11 11 -59 6 -59 -7
0 -5 -16 -14 -35 -20 -19 -6 -35 -17 -35 -25 0 -16 -38 -27 -46 -13 -4 6 -10
6 -17 -1 -6 -6 -15 -11 -19 -11 -13 0 -4 24 15 38 21 16 14 32 -16 32 -23 0
-87 -56 -87 -76 0 -7 -12 -22 -27 -34 -23 -18 -28 -19 -35 -5 -12 20 -30 19
-58 -5 -25 -22 -36 -19 -89 29 -32 29 -33 32 -21 61 7 16 19 30 26 30 8 0 14
5 14 11 0 5 5 7 11 4 6 -4 8 -13 5 -21 -4 -9 2 -14 16 -14 17 0 18 2 8 15 -11
13 -10 15 6 14 51 -5 57 -1 49 37 -6 34 -5 36 10 20 21 -20 26 -20 18 0 -5 13
-2 15 17 9 13 -4 34 -1 54 8 17 9 46 21 63 27 36 13 35 30 0 29 -12 0 -48 0
-80 1 -50 1 -55 3 -42 16 8 8 23 14 32 12 11 -2 18 3 18 12 0 32 -129 24 -170
-10 -6 -5 -17 -5 -25 0 -13 9 -13 10 0 10 13 0 13 1 0 10 -12 8 -10 14 13 38
31 32 35 54 10 51 -33 -4 -53 12 -53 41 0 16 -7 30 -15 34 -8 3 -15 1 -15 -5
0 -6 -4 -8 -9 -4 -19 11 -23 -17 -5 -31 18 -15 18 -15 0 -6 -10 5 -28 7 -39 4
-11 -3 -18 -1 -14 4 9 15 -16 40 -45 48 -37 9 -36 -9 2 -26 33 -14 40 -27 42
-82 1 -20 5 -32 8 -25 6 8 12 8 26 -1 17 -10 17 -11 1 -6 -11 3 -17 1 -16 -7
6 -48 -20 -82 -45 -57 -7 7 -4 10 9 11 11 0 14 3 8 6 -7 2 -13 16 -13 30 0 20
-4 23 -20 18 -11 -3 -20 -2 -20 3 0 6 5 12 12 14 6 2 9 12 5 21 -5 13 -13 16
-32 11 -15 -4 -32 -1 -40 6 -8 7 -15 9 -15 4 0 -14 -20 19 -20 34 0 6 7 12 15
12 10 0 15 10 15 33 0 22 -3 28 -9 18 -5 -8 -16 -11 -25 -8 -9 4 -19 -1 -24
-10 -6 -9 -12 -12 -16 -5 -3 5 1 15 9 22 18 15 20 52 3 49 -7 -1 -18 -1 -24 0
-14 1 -32 41 -28 64 1 9 -4 17 -11 17 -9 0 -13 -19 -13 -65 0 -36 3 -65 6 -65
4 0 20 -11 36 -25 33 -28 42 -31 49 -12 3 6 6 2 6 -10 1 -26 -10 -29 -42 -11
-12 7 -28 13 -34 14 -15 3 -17 -12 -4 -20 5 -3 14 -26 20 -51 6 -25 16 -45 21
-45 12 0 50 -59 50 -78 0 -9 -7 -11 -21 -7 -15 5 -19 4 -15 -4 4 -6 5 -11 2
-11 -2 0 -12 -3 -22 -7 -13 -5 -16 -3 -11 10 5 14 0 17 -23 17 -22 0 -39 12
-75 54 -25 30 -66 75 -91 99 -50 51 -59 83 -19 73 24 -6 25 -4 25 34 0 40 0
40 -34 36 -26 -4 -39 1 -56 19 -14 15 -18 25 -11 30 20 12 11 23 -21 31 -34 7
-81 38 -72 46 2 3 -2 11 -11 18 -8 7 -15 18 -15 25 0 7 -7 15 -15 19 -8 3 -15
13 -15 23 0 10 -16 67 -35 128 -19 60 -35 113 -35 116 0 4 10 5 23 1 20 -5 21
-4 8 11 -7 9 -20 17 -27 17 -13 0 -16 13 -16 75 0 47 1 48 28 30 31 -20 51 -8
36 21 -5 11 -8 25 -6 32 1 7 0 8 -2 3 -7 -13 -42 -2 -48 15 -3 8 -12 14 -21
14 -8 0 -15 1 -15 3 -7 32 -11 130 -7 141 5 12 11 13 36 3 25 -9 34 -9 46 4
13 12 13 19 3 42 -7 15 -19 27 -25 27 -7 0 -13 4 -13 10 0 5 -14 23 -31 39
-17 17 -28 34 -26 38 3 5 13 51 22 103 21 129 57 240 126 397 60 134 68 163
47 163 -23 0 16 20 39 20 14 0 30 11 40 28 10 15 34 50 55 78 21 28 38 55 38
61 0 6 15 22 33 36 17 13 43 35 57 48 34 31 175 148 220 180 47 35 141 82 218
108 77 26 76 26 68 -1 -12 -40 -14 -68 -5 -74 5 -3 9 -1 9 4 0 6 7 9 17 8 20
-1 36 50 23 75 -14 26 -15 25 53 44 140 37 209 45 387 41 155 -4 189 -8 298
-35z m1025 24 c0 -6 -7 -11 -16 -13 -12 -3 -15 1 -11 13 7 17 25 17 27 0z
m-2856 -20 c0 -18 -28 -16 -35 3 -2 7 5 12 16 12 10 0 19 -7 19 -15z m233 -1
c0 -8 -4 -12 -10 -9 -5 3 -10 10 -10 16 0 5 5 9 10 9 6 0 10 -7 10 -16z m79
-10 c-17 -21 -31 -17 -19 6 6 11 15 18 21 14 6 -4 6 -11 -2 -20z m-524 -4 c3
-5 -1 -10 -9 -10 -9 0 -16 -5 -16 -12 0 -6 -2 -9 -5 -6 -7 7 5 38 15 38 5 0
12 -4 15 -10z m76 -21 c-9 -22 -10 -22 -10 -3 -1 11 2 24 6 27 12 12 14 0 4
-24z m265 10 c3 -5 -2 -10 -10 -10 -9 -1 -22 -2 -28 -3 -7 0 -18 -16 -24 -35
-6 -19 -14 -30 -17 -25 -3 6 3 28 13 51 15 34 22 41 39 36 12 -3 24 -9 27 -14z
m48 15 c23 -9 20 -34 -3 -34 -22 0 -35 15 -26 30 7 12 8 12 29 4z m-334 -14
c0 -5 -5 -10 -11 -10 -5 0 -7 5 -4 10 3 6 8 10 11 10 2 0 4 -4 4 -10z m-112
-25 c-3 -3 -9 2 -12 12 -6 14 -5 15 5 6 7 -7 10 -15 7 -18z m670 -3 c2 -7 -2
-10 -12 -6 -9 3 -16 11 -16 16 0 13 23 5 28 -10z m-243 -22 c-3 -5 -11 -10
-16 -10 -6 0 -7 5 -4 10 3 6 11 10 16 10 6 0 7 -4 4 -10z m149 4 c26 -10 20
-44 -8 -44 -30 0 -42 16 -26 35 14 17 13 17 34 9z m-104 -45 c0 -5 -7 -9 -15
-9 -15 0 -20 12 -9 23 8 8 24 -1 24 -14z m-20 -16 c30 -14 32 -17 14 -23 -21
-8 -67 17 -58 31 7 12 5 12 44 -8z m63 0 c-7 -2 -19 -2 -25 0 -7 3 -2 5 12 5
14 0 19 -2 13 -5z m54 -19 c-3 -3 -12 -4 -19 -1 -8 3 -5 6 6 6 11 1 17 -2 13
-5z m-188 -1188 c8 -9 8 -21 0 -45 -14 -40 -24 -32 -24 20 -1 41 5 48 24 25z
m-269 -83 c0 -5 -5 -15 -10 -23 -8 -12 -10 -11 -10 8 0 12 5 22 10 22 6 0 10
-3 10 -7z m-44 -29 c-11 -7 -22 -12 -25 -9 -2 3 4 12 15 19 10 8 21 12 24 9 3
-2 -4 -11 -14 -19z m14 -34 c-24 -15 -36 -11 -14 4 10 8 21 12 24 10 2 -3 -2
-9 -10 -14z m-95 -30 c3 -5 -1 -10 -9 -10 -8 0 -18 5 -21 10 -3 6 1 10 9 10 8
0 18 -4 21 -10z m-165 -79 c0 -12 -28 -22 -34 -12 -3 5 -3 11 1 15 9 9 33 7
33 -3z m78 -255 c15 3 38 1 52 -5 23 -9 23 -10 -13 -10 -24 -1 -36 -5 -32 -12
4 -5 8 -20 10 -32 1 -12 4 -26 6 -32 2 -5 0 -11 -6 -13 -5 -2 -13 7 -17 20 -3
13 -7 19 -7 13 -1 -5 -6 -3 -11 5 -9 13 -10 13 -10 0 0 -8 -9 -33 -20 -55
l-19 -40 6 35 c6 32 5 34 -10 21 -15 -12 -17 -11 -17 12 0 29 19 78 35 89 5 4
6 8 2 8 -5 0 -5 5 -1 11 5 8 10 7 16 -4 6 -11 17 -15 36 -11z m82 -96 c0 -5
-5 -10 -11 -10 -5 0 -7 5 -4 10 3 6 8 10 11 10 2 0 4 -4 4 -10z m83 -356 c48
20 202 13 227 -9 16 -15 18 -21 8 -33 -9 -11 -26 -13 -68 -8 -41 5 -64 2 -88
-9 -17 -9 -37 -13 -43 -9 -8 4 -9 3 -5 -4 5 -8 0 -12 -13 -12 -16 0 -21 -6
-21 -25 0 -20 -6 -25 -35 -31 -22 -4 -32 -10 -28 -18 4 -6 -1 -5 -10 3 -21 17
-22 69 -2 98 14 19 13 26 -5 68 -27 63 -26 65 15 17 35 -40 36 -40 68 -28z
m547 41 c7 -9 8 -15 2 -15 -5 0 -12 7 -16 15 -3 8 -4 15 -2 15 2 0 9 -7 16
-15z m-385 -145 c-3 -5 -12 -10 -18 -10 -7 0 -6 4 3 10 19 12 23 12 15 0z
m-38 -28 c10 8 12 7 8 -5 -7 -17 -40 -28 -61 -20 -12 4 -11 8 3 19 11 7 22 9
27 4 6 -6 15 -5 23 2z m819 -2 c8 0 14 -4 14 -8 0 -5 -10 -8 -22 -6 -13 1 -33
3 -45 3 -13 1 -23 6 -23 12 0 8 11 9 31 5 17 -3 38 -6 45 -6z m-800 -64 c3 -8
-2 -27 -11 -43 -12 -19 -12 -22 -2 -10 16 19 25 13 22 -13 -1 -8 -3 -30 -3
-47 -2 -25 -7 -33 -21 -33 -11 0 -21 8 -24 18 -3 13 -8 8 -20 -18 -15 -34 -15
-34 -9 35 4 60 3 68 -9 58 -23 -19 -179 -65 -196 -58 -9 3 -26 -2 -39 -10 -42
-27 -26 0 19 32 67 48 177 95 208 88 15 -4 30 -1 34 4 9 16 45 13 51 -3z m203
-34 l74 -37 -37 -3 c-21 -2 -60 1 -87 7 -28 6 -63 11 -79 11 -28 0 -30 3 -30
36 l0 37 43 -7 c23 -4 75 -24 116 -44z m821 33 c0 -8 -9 -15 -20 -15 -17 0
-19 2 -8 15 17 19 28 19 28 0z m-143 -10 c0 -8 -4 -12 -9 -9 -5 3 -6 10 -3 15
9 13 12 11 12 -6z m-56 -92 c12 -16 12 -17 -2 -6 -9 7 -20 9 -24 5 -5 -4 -5
-1 -1 6 9 16 11 15 27 -5z m-61 1 c0 -8 -19 -13 -24 -6 -3 5 1 9 9 9 8 0 15
-2 15 -3z m119 -60 c6 4 11 2 11 -3 0 -6 -7 -11 -16 -11 -25 0 -7 -17 26 -23
17 -4 30 -13 30 -21 0 -9 -7 -12 -20 -9 -11 3 -20 9 -20 13 0 4 -11 12 -24 18
-18 8 -23 16 -19 32 4 15 8 18 13 10 4 -7 13 -9 19 -6z m-39 -4 c0 -5 -4 -10
-9 -10 -6 0 -13 5 -16 10 -3 6 1 10 9 10 9 0 16 -4 16 -10z m305 1 c10 -17
-12 -21 -25 -6 -10 12 -10 15 3 15 9 0 18 -4 22 -9z m-1233 -60 c-12 -34 -7
-38 17 -17 11 10 60 16 165 20 83 4 152 9 156 11 3 2 33 6 66 9 45 4 66 2 80
-9 18 -14 18 -14 -3 -16 -13 -1 -31 -2 -40 -3 -10 -1 -33 -7 -50 -15 -24 -10
-33 -20 -33 -38 0 -13 7 -26 15 -29 8 -4 13 -10 10 -14 -8 -13 17 -60 32 -60
7 0 13 -6 13 -14 0 -8 3 -22 6 -31 6 -15 4 -15 -15 -4 -11 8 -21 17 -21 21 0
4 -20 38 -45 75 -31 46 -55 70 -73 76 -38 10 -243 7 -289 -5 -21 -5 -45 -10
-53 -10 -8 -1 -18 -6 -21 -11 -8 -11 -39 -2 -39 11 0 5 15 15 33 22 71 26 79
31 84 51 3 11 8 18 10 15 3 -3 1 -19 -5 -35z m526 -13 c23 -23 14 -48 -18 -48
-30 0 -80 18 -80 30 0 5 40 19 81 29 3 0 10 -4 17 -11z m186 -69 c-31 -34 -67
-56 -104 -64 -33 -7 -32 -5 15 20 28 15 61 35 75 46 33 24 37 24 14 -2z m697
0 c24 -17 33 -18 44 -9 17 14 65 5 65 -12 0 -7 7 -2 16 10 21 30 49 31 33 0
-10 -18 -9 -20 6 -15 9 4 23 1 30 -7 11 -11 12 -17 1 -31 -17 -24 -49 -15 -57
15 l-7 25 -1 -27 c-1 -28 -31 -42 -31 -15 0 9 -3 8 -9 -2 -10 -16 -31 -6 -31
14 0 11 -6 12 -31 3 -26 -9 -33 -7 -50 10 -18 20 -27 62 -13 62 3 0 19 -9 35
-21z m-981 -4 c0 -19 -9 -19 -34 0 -19 14 -19 15 7 15 17 0 27 -5 27 -15z
m-100 -4 c0 -10 -24 -21 -48 -21 -13 0 -12 3 4 15 21 16 44 19 44 6z m-145
-36 c83 -23 126 -47 105 -60 -6 -4 -8 -11 -5 -16 15 -24 -46 0 -120 47 -27 17
-63 39 -80 48 -21 12 -23 15 -8 11 13 -4 61 -17 108 -30z m382 -31 c-3 -3 -12
-4 -19 -1 -8 3 -5 6 6 6 11 1 17 -2 13 -5z m-206 -15 c11 -5 17 -14 14 -20
-10 -16 -34 -10 -45 11 -12 23 -1 27 31 9z m139 4 c-14 -3 -28 -10 -32 -16 -4
-6 -10 -8 -13 -5 -14 13 7 28 38 27 28 -2 29 -2 7 -6z m-139 -86 c-12 -14 -19
-31 -16 -39 4 -11 -13 -30 -55 -62 -64 -47 -93 -59 -69 -28 11 15 11 15 -1 4
-8 -7 -15 -18 -15 -24 0 -6 -6 -13 -12 -15 -7 -3 -13 -1 -13 4 0 25 120 160
154 173 40 17 51 11 27 -13z m162 -23 c15 -25 24 -50 21 -56 -4 -6 -3 -9 2 -5
5 3 21 -17 36 -44 15 -28 20 -45 13 -39 -8 7 -17 19 -20 28 -2 10 -14 23 -25
30 -19 12 -20 11 -8 -10 7 -13 17 -26 21 -29 4 -3 1 -12 -7 -19 -19 -15 -44
-1 -113 63 -51 47 -55 76 -15 106 43 32 64 27 95 -25z m108 -17 c-8 -8 -11 -5
-11 9 0 27 14 41 18 19 2 -9 -1 -22 -7 -28z m896 -33 c13 -8 26 -26 29 -40 8
-33 -14 -166 -27 -159 -5 4 -6 -2 -2 -11 5 -14 2 -16 -15 -12 -23 6 -39 -17
-19 -26 7 -3 2 -3 -10 -1 -12 3 -24 1 -28 -5 -6 -10 42 -59 60 -60 6 0 16 25
22 55 8 38 21 63 40 81 l28 26 3 -32 c2 -20 -6 -52 -21 -81 l-24 -49 26 16 26
17 -24 -27 c-14 -14 -32 -26 -40 -27 -12 0 -11 -2 4 -8 16 -7 15 -9 -12 -14
-24 -5 -33 -13 -38 -35 -6 -28 -7 -29 -45 -18 -22 5 -40 14 -40 18 0 15 30 21
44 9 10 -9 16 -9 21 -1 4 6 1 9 -7 8 -14 -3 -14 3 -3 42 l7 25 -25 -27 c-39
-45 -54 -37 -47 25 3 28 10 51 16 50 7 -1 7 15 0 55 -6 31 -12 49 -14 40 -3
-16 -5 -16 -18 -4 -19 19 -18 64 2 112 9 22 20 50 25 63 8 20 14 22 47 16 20
-3 47 -13 59 -21z m-941 -121 c-7 -7 -26 7 -26 19 0 6 6 6 15 -2 9 -7 13 -15
11 -17z m1214 -97 c32 -15 36 -40 13 -84 -20 -39 -78 -102 -94 -102 -6 0 -8
-4 -5 -9 7 -10 -27 -21 -67 -21 -22 0 -28 4 -25 19 2 10 -6 28 -16 40 -18 19
-18 23 -4 34 9 6 25 32 36 57 38 85 82 103 162 66z"/>
<path d="M2452 4083 c-6 -2 -10 -9 -6 -14 3 -5 -1 -9 -9 -9 -20 0 -43 -48 -30
-61 12 -12 51 10 86 49 17 19 17 19 -10 14 -25 -5 -27 -4 -14 11 13 17 8 20
-17 10z"/>
<path d="M1221 3884 c0 -11 3 -14 6 -6 3 7 2 16 -1 19 -3 4 -6 -2 -5 -13z"/>
<path d="M1927 3529 c-26 -15 -67 -18 -67 -5 0 6 -5 4 -10 -4 -5 -8 -10 -10
-10 -4 0 8 -13 8 -45 1 -52 -12 -48 -22 13 -30 28 -3 40 -2 35 6 -4 6 0 8 9 4
18 -6 83 14 100 31 15 15 -1 15 -25 1z"/>
<path d="M2200 3490 c0 -6 -4 -8 -10 -5 -5 3 -10 1 -10 -5 0 -6 -10 -8 -24 -4
-16 4 -25 1 -29 -10 -4 -11 -1 -13 10 -9 12 5 14 3 8 -7 -5 -8 -4 -11 3 -6 6
3 13 2 16 -3 6 -9 65 0 110 18 16 7 36 9 44 6 8 -3 21 0 28 6 8 6 20 9 27 6 8
-3 19 -2 26 3 8 4 1 9 -20 14 -20 4 -38 1 -47 -6 -13 -10 -14 -10 -8 0 9 15
-7 16 -53 2 -22 -6 -40 -6 -52 1 -13 7 -19 6 -19 -1z"/>
<path d="M2065 3460 c-18 -8 -17 -9 8 -9 16 -1 26 3 22 9 -3 6 -7 10 -8 9 -1
0 -11 -4 -22 -9z"/>
<path d="M1923 3453 c-18 -7 -16 -23 2 -23 9 0 20 -11 25 -25 5 -14 14 -25 19
-25 5 0 39 -17 75 -39 45 -26 74 -37 91 -33 14 2 25 7 25 11 0 3 3 16 6 29 5
16 2 22 -9 22 -8 0 -17 5 -19 12 -2 6 -24 12 -49 13 -49 2 -79 12 -79 27 0 6
6 5 15 -2 12 -10 15 -10 15 4 0 18 -25 22 -35 6 -11 -18 -23 -11 -18 10 4 17
1 20 -23 19 -16 0 -35 -3 -41 -6z"/>
<path d="M2175 3400 c-3 -5 -2 -10 4 -10 5 0 13 5 16 10 3 6 2 10 -4 10 -5 0
-13 -4 -16 -10z"/>
<path d="M2295 3371 c3 -5 1 -12 -4 -15 -5 -4 -12 -2 -16 4 -8 13 -25 3 -25
-16 0 -8 10 -14 25 -14 16 0 25 6 25 16 0 9 5 12 13 8 8 -5 8 -2 -2 9 -14 18
-26 23 -16 8z"/>
<path d="M1425 3303 c-17 -9 -42 -29 -58 -44 -15 -16 -33 -29 -40 -29 -6 0
-23 -12 -36 -25 -13 -14 -27 -25 -33 -25 -5 0 -7 -4 -4 -9 3 -5 -4 -11 -15
-14 -12 -3 -18 -10 -15 -15 8 -14 43 -3 50 14 3 8 17 14 32 14 21 0 25 4 21
20 -3 11 -1 18 4 14 5 -3 9 -11 9 -19 0 -10 8 -9 36 4 25 12 46 34 65 69 15
28 25 53 21 56 -4 2 -21 -3 -37 -11z"/>
<path d="M2220 3300 c12 -7 8 -10 -15 -11 -16 0 -46 -6 -65 -14 l-35 -13 25
-10 c15 -5 34 -6 48 -1 13 5 39 9 57 9 43 0 166 -39 181 -57 6 -7 15 -13 19
-13 10 0 42 -37 63 -73 20 -34 36 -30 39 9 3 32 -39 90 -57 79 -6 -4 -9 -1 -8
6 2 7 -6 15 -16 17 -11 2 -26 10 -34 18 -7 8 -20 14 -28 14 -21 0 -94 31 -90
39 2 3 -19 7 -47 8 -36 2 -47 -1 -37 -7z"/>
<path d="M2385 3290 c3 -5 11 -10 16 -10 6 0 7 5 4 10 -3 6 -11 10 -16 10 -6
0 -7 -4 -4 -10z"/>
<path d="M2696 3287 c5 -13 0 -15 -21 -11 -18 3 -34 -1 -46 -12 -18 -16 -19
-16 -19 0 0 14 -3 14 -20 4 -11 -7 -18 -19 -15 -25 2 -7 -3 -13 -12 -13 -12 0
-13 -3 -4 -13 6 -8 8 -17 5 -20 -4 -3 6 -9 22 -13 18 -5 29 -3 32 4 2 7 10 12
18 12 8 0 14 4 14 8 0 5 16 17 35 28 38 20 43 35 20 54 -13 11 -14 10 -9 -3z"/>
<path d="M2760 3271 c-8 -6 -18 -7 -22 -5 -4 3 -8 1 -8 -5 0 -5 -13 -22 -29
-36 -37 -35 -32 -69 7 -54 21 8 29 7 40 -8 13 -17 14 -16 7 5 -5 18 -3 22 17
22 18 0 20 2 8 10 -8 5 -10 10 -5 10 6 0 12 16 13 35 3 36 -3 41 -28 26z m-15
-71 c-3 -5 -12 -10 -18 -10 -7 0 -6 4 3 10 19 12 23 12 15 0z"/>
<path d="M2220 3230 c-32 -4 -46 -10 -48 -22 -2 -10 1 -18 7 -18 6 0 11 5 11
11 0 6 12 9 28 8 15 -2 33 0 40 5 22 13 51 -2 45 -25 -5 -18 -3 -19 21 -8 64
30 -2 60 -104 49z"/>
<path d="M1570 3220 c0 -5 4 -10 9 -10 6 0 13 5 16 10 3 6 -1 10 -9 10 -9 0
-16 -4 -16 -10z"/>
<path d="M2823 3196 c-16 -18 -8 -24 22 -18 28 5 33 17 9 26 -19 7 -17 8 -31
-8z"/>
<path d="M2335 3174 c-16 -13 -31 -20 -34 -15 -9 14 -61 8 -61 -7 0 -7 4 -11
9 -7 5 3 17 -5 26 -17 l16 -23 20 24 c14 17 25 22 44 17 36 -9 22 -40 -16 -32
-22 4 -29 1 -34 -14 -3 -11 -3 -24 0 -30 3 -5 -1 -10 -11 -10 -14 0 -14 -2 -3
-16 11 -14 10 -16 -6 -13 -11 2 -26 0 -34 -5 -10 -6 -12 -4 -7 12 6 17 3 20
-21 17 -15 -1 -29 -8 -31 -14 -2 -6 -10 -11 -18 -11 -8 0 -14 -4 -14 -10 0 -5
5 -10 11 -10 5 0 8 -4 4 -10 -3 -5 -12 -7 -20 -3 -9 3 -15 -1 -15 -11 0 -9 6
-13 13 -10 8 3 20 -2 27 -11 11 -13 10 -14 -4 -9 -9 3 -16 2 -16 -3 0 -18 12
-22 36 -13 14 6 26 6 29 0 7 -11 35 -2 35 11 0 5 -9 9 -19 9 -11 0 -22 4 -26
9 -3 6 10 5 31 -1 25 -7 39 -6 43 1 4 6 17 8 29 4 12 -3 19 -9 16 -14 -3 -5
-1 -9 5 -9 13 0 32 35 24 44 -3 3 -15 6 -25 6 -26 0 -23 10 15 41 28 25 29 28
12 29 -12 0 -27 -6 -35 -12 -8 -7 -6 -3 5 10 11 13 27 21 36 19 10 -3 20 2 23
10 3 8 1 11 -4 8 -6 -3 -10 1 -10 10 0 9 7 15 16 13 10 -2 19 3 22 11 3 10 0
12 -12 8 -9 -4 -15 -3 -12 2 3 5 -1 12 -10 15 -8 3 -13 10 -9 15 13 21 -13 18
-40 -5z m-32 -161 c-7 -2 -19 -2 -25 0 -7 3 -2 5 12 5 14 0 19 -2 13 -5z"/>
<path d="M1462 3170 c-12 -10 -28 -21 -35 -24 -8 -3 -6 -9 7 -20 24 -19 37
-20 35 -3 -3 28 2 39 16 34 8 -4 17 -2 20 3 4 6 15 10 26 10 30 0 15 15 -18
17 -15 1 -38 -6 -51 -17z"/>
<path d="M1341 3155 c-40 -28 -51 -43 -51 -70 0 -15 7 -21 30 -22 17 -1 30 2
30 7 0 6 -7 10 -15 10 -8 0 -15 4 -15 9 0 20 13 41 24 41 7 0 18 11 24 25 6
14 11 25 9 25 -1 -1 -17 -12 -36 -25z"/>
<path d="M1583 3162 c-7 -8 -11 -18 -7 -23 9 -16 -6 -48 -27 -54 -15 -5 -17
-10 -9 -20 9 -11 7 -12 -12 -8 -43 11 -5 -14 49 -31 62 -19 80 -20 38 -2 -29
12 -27 13 25 9 41 -3 51 -2 40 6 -14 10 -13 12 10 15 17 2 28 26 23 47 -3 11
0 19 6 19 7 0 9 6 5 13 -5 9 -3 9 7 -1 12 -11 12 -14 -1 -23 -11 -8 -12 -12
-2 -16 6 -2 12 -9 12 -14 0 -6 -5 -7 -11 -3 -7 4 -10 1 -7 -7 3 -8 13 -13 22
-13 16 2 16 0 2 -15 -15 -17 -13 -19 24 -34 l40 -15 0 26 c0 19 3 23 9 13 6
-9 9 -6 9 12 0 29 -87 126 -115 128 -85 5 -118 2 -130 -9z"/>
<path d="M2720 3160 c0 -5 5 -10 11 -10 5 0 7 5 4 10 -3 6 -8 10 -11 10 -2 0
-4 -4 -4 -10z"/>
<path d="M2170 3128 c0 -12 5 -17 13 -14 6 3 20 9 30 12 27 10 20 21 -13 21
-23 0 -30 -5 -30 -19z"/>
<path d="M1208 3109 c-3 -8 0 -23 8 -34 12 -16 14 -16 14 -3 0 9 3 25 6 35 4
13 3 15 -4 4 -8 -11 -10 -11 -14 0 -3 10 -6 10 -10 -2z"/>
<path d="M2803 3095 c-10 -10 -9 -16 2 -25 18 -15 40 -7 55 19 10 19 8 21 -17
21 -15 -1 -33 -7 -40 -15z m34 -8 c0 -8 -6 -14 -13 -14 -7 0 -10 6 -7 14 3 7
8 13 12 13 4 0 8 -6 8 -13z"/>
<path d="M1215 3040 c3 -5 8 -10 11 -10 2 0 4 5 4 10 0 6 -5 10 -11 10 -5 0
-7 -4 -4 -10z"/>
<path d="M1347 3019 c-10 -6 -27 -9 -37 -6 -12 3 -20 -2 -23 -14 -3 -11 -12
-19 -21 -19 -17 0 -20 -17 -10 -44 8 -20 28 -20 45 0 10 13 10 17 -2 25 -10 6
-10 9 -1 10 6 1 17 3 22 4 6 1 17 3 25 4 8 0 15 9 15 19 0 14 2 15 10 2 11
-18 23 -8 14 14 -7 19 -12 19 -37 5z"/>
<path d="M2900 3026 c0 -2 7 -6 15 -10 8 -3 15 -1 15 4 0 6 -7 10 -15 10 -8 0
-15 -2 -15 -4z"/>
<path d="M1187 2998 c-2 -7 -1 -20 4 -29 4 -9 9 -36 11 -60 2 -38 6 -45 23
-45 11 1 23 8 27 16 4 8 6 -23 6 -70 -2 -104 6 -134 34 -127 11 3 31 2 44 -3
17 -7 24 -6 24 2 0 7 6 3 14 -8 11 -14 11 -21 3 -26 -7 -4 -7 -8 -2 -8 13 1
42 23 41 32 -1 3 2 9 6 13 8 8 6 -5 -11 -62 -6 -24 -18 -43 -26 -43 -13 0 -53
-86 -47 -103 1 -5 -2 -6 -7 -3 -15 9 -97 -124 -122 -197 -29 -86 -50 -113 -75
-99 -16 9 -25 4 -56 -31 -21 -23 -38 -45 -38 -49 0 -4 14 -15 30 -25 17 -9 30
-21 30 -25 0 -4 9 -17 20 -28 12 -12 18 -26 13 -33 -5 -8 -2 -8 9 1 12 9 18
10 23 2 5 -8 11 -8 19 -1 7 6 16 8 19 4 4 -3 7 1 7 10 0 20 36 42 45 27 4 -6
10 -8 15 -5 5 3 11 1 15 -4 7 -13 35 -3 35 13 0 6 -18 19 -40 29 -46 21 -48
32 -20 87 11 22 18 40 16 40 -7 0 48 108 87 173 20 33 39 72 42 87 10 47 60
88 123 101 30 6 67 9 81 6 38 -8 42 -3 79 77 3 5 0 6 -7 2 -8 -5 -8 0 -2 16 5
13 9 25 9 28 0 3 3 12 6 20 3 8 9 33 14 54 4 22 13 41 20 44 7 2 10 -2 6 -12
-3 -9 -1 -16 5 -16 6 0 11 -7 11 -15 0 -27 28 -16 50 20 17 27 27 34 41 30 22
-7 24 6 7 36 -10 17 -10 23 0 26 6 3 12 9 12 15 0 6 -8 4 -17 -4 -36 -32 -90
-51 -158 -58 -57 -6 -72 -4 -82 8 -10 12 -15 13 -27 3 -8 -7 -12 -19 -9 -28 4
-10 2 -14 -7 -11 -8 2 -22 -4 -33 -15 -14 -14 -21 -16 -27 -7 -6 9 -13 9 -28
1 -22 -12 -39 0 -27 20 9 14 -34 59 -56 59 -9 0 -20 -7 -23 -16 -5 -13 -9 -14
-21 -4 -8 7 -15 19 -15 26 0 17 -36 18 -47 2 -5 -9 -10 -3 -13 17 -4 17 -10
29 -16 28 -5 -1 -9 11 -10 26 -1 31 -49 90 -57 69z m233 -197 c0 -21 -26 -36
-36 -20 -9 15 3 39 21 39 8 0 15 -9 15 -19z m247 -48 c-12 -29 -25 -43 -41
-43 -5 0 -3 7 4 15 7 8 9 15 4 15 -7 0 35 39 43 40 2 0 -3 -12 -10 -27z m-320
-15 c-3 -8 -6 -5 -6 6 -1 11 2 17 5 13 3 -3 4 -12 1 -19z m178 -7 c3 -5 1 -12
-5 -16 -5 -3 -10 1 -10 9 0 18 6 21 15 7z m-225 -26 c0 -8 -4 -15 -10 -15 -5
0 -7 7 -4 15 4 8 8 15 10 15 2 0 4 -7 4 -15z m315 -81 c-48 -32 -53 -30 -14 6
18 16 36 27 41 24 5 -3 -8 -16 -27 -30z m-325 -258 c0 -2 -7 -7 -16 -10 -8 -3
-12 -2 -9 4 6 10 25 14 25 6z"/>
<path d="M2846 2991 c-3 -4 6 -6 19 -3 14 2 25 6 25 8 0 8 -39 4 -44 -5z"/>
<path d="M1737 2964 c-3 -5 9 -10 25 -11 44 -3 46 -11 13 -39 l-30 -25 33 18
c37 20 58 41 49 49 -10 10 -84 16 -90 8z"/>
<path d="M2544 2945 c6 -23 4 -26 -16 -23 -15 2 -32 -7 -49 -25 -19 -21 -33
-27 -51 -23 -55 10 -96 -66 -61 -112 30 -40 69 -37 116 7 33 32 40 34 58 23
12 -8 18 -9 15 -4 -3 6 5 13 18 16 15 4 26 16 30 32 l7 27 17 -24 c9 -13 16
-28 14 -32 -1 -5 2 -6 8 -2 15 9 12 26 -7 47 -9 10 -11 18 -5 18 6 0 18 -10
26 -22 9 -12 16 -18 17 -13 0 6 6 -8 13 -30 7 -23 9 -54 5 -73 -5 -25 -3 -35
7 -39 8 -3 14 -11 14 -19 0 -17 -27 -19 -33 -1 -4 8 -6 7 -6 -3 -1 -9 -9 -27
-18 -40 -10 -14 -18 -32 -18 -40 0 -8 -7 -14 -15 -12 -11 3 -12 1 -3 -8 15
-16 44 4 84 59 17 22 35 41 40 41 5 0 6 14 3 30 -6 25 -3 30 13 30 11 0 23 -3
27 -7 3 -4 13 -8 21 -9 11 -2 12 2 2 17 -6 10 -18 19 -25 19 -7 0 -11 4 -8 9
4 5 0 11 -6 13 -8 3 -2 14 17 30 l30 26 -25 27 c-17 18 -31 24 -47 20 -15 -3
-39 6 -75 28 -29 19 -73 41 -97 51 l-43 17 6 -26z m87 -46 l24 -20 -30 17
c-39 24 -40 24 -28 24 6 0 21 -9 34 -21z m-131 -69 c-6 -11 -15 -20 -20 -20
-4 0 -17 -3 -27 -6 -11 -3 -7 4 12 20 36 31 50 33 35 6z"/>
<path d="M1951 2934 c-12 -14 -29 -23 -37 -20 -8 3 -14 1 -14 -4 0 -6 7 -10
16 -10 10 0 14 -7 12 -22 -2 -16 3 -24 16 -26 10 -2 16 0 13 5 -6 10 19 34 27
26 3 -4 6 -1 6 6 0 7 5 9 10 6 6 -3 10 -2 10 4 0 5 14 8 31 6 25 -4 29 -2 19
10 -6 7 -20 12 -30 10 -12 -2 -21 3 -25 16 -8 25 -25 23 -54 -7z"/>
<path d="M2140 2946 c0 -8 4 -17 9 -20 5 -4 7 3 4 14 -6 23 -13 26 -13 6z"/>
<path d="M1030 2940 c0 -6 5 -8 11 -4 6 3 16 0 21 -7 8 -12 9 -11 5 1 -4 18
-37 27 -37 10z"/>
<path d="M1080 2934 c0 -9 40 -23 44 -15 3 5 -5 11 -19 13 -14 3 -25 4 -25 2z"/>
<path d="M1834 2925 c-10 -8 -14 -14 -9 -14 6 0 19 6 29 14 11 8 15 15 10 15
-6 0 -19 -7 -30 -15z"/>
<path d="M2960 2931 c0 -23 24 -60 46 -69 20 -10 22 -9 16 6 -16 39 -62 86
-62 63z"/>
<path d="M950 2917 c0 -7 15 -12 38 -13 20 -1 29 1 19 3 -9 3 -15 8 -13 12 3
4 -6 8 -20 9 -13 1 -24 -4 -24 -11z"/>
<path d="M2412 2914 c-7 -8 -10 -19 -6 -26 5 -7 10 -3 16 12 10 28 7 33 -10
14z"/>
<path d="M3128 2913 c7 -3 16 -2 19 1 4 3 -2 6 -13 5 -11 0 -14 -3 -6 -6z"/>
<path d="M2890 2902 c0 -5 9 -17 20 -27 12 -10 18 -25 16 -32 -3 -7 -2 -13 2
-13 4 -1 25 -17 47 -37 22 -20 32 -33 22 -30 -17 6 -18 2 -11 -41 4 -26 11
-48 15 -50 5 -2 9 -10 9 -18 0 -9 -5 -12 -12 -8 -7 4 -8 3 -4 -5 4 -6 12 -8
18 -5 19 12 6 -151 -14 -173 -27 -29 -171 -98 -186 -89 -6 3 -12 -7 -14 -23
l-4 -29 40 15 c23 9 46 20 51 24 6 5 31 11 55 14 l45 6 -50 -25 c-27 -14 -66
-40 -85 -57 -30 -27 -40 -30 -75 -25 -31 4 -45 1 -64 -15 -28 -23 -20 -34 32
-46 l27 -6 -21 -36 -21 -36 21 19 c22 20 22 20 15 0 -7 -16 -5 -17 8 -6 25 20
107 41 154 38 31 -2 44 1 44 11 0 7 3 13 6 13 11 0 44 -42 44 -56 0 -8 6 -11
15 -8 9 4 15 0 15 -9 0 -9 5 -19 12 -23 8 -5 9 0 4 17 -4 13 -7 39 -7 57 1 17
-3 32 -10 32 -6 0 -9 6 -6 13 5 13 -26 71 -52 97 -13 13 -12 15 13 18 36 4 59
-5 50 -20 -5 -7 -2 -9 7 -6 8 3 20 -1 27 -8 7 -8 9 -14 5 -14 -4 0 0 -5 11
-11 15 -9 16 -13 5 -20 -12 -8 -11 -11 4 -20 9 -5 17 -16 17 -22 0 -7 13 -28
30 -47 16 -19 29 -39 30 -43 0 -4 -15 -22 -32 -39 -18 -17 -27 -28 -20 -24 8
5 11 0 8 -16 -3 -13 -5 -33 -5 -45 -1 -20 -4 -21 -32 -11 -17 6 -33 17 -36 24
-3 8 -12 14 -20 14 -12 0 -14 -7 -8 -27 8 -34 4 -31 45 -36 40 -4 80 -23 80
-38 0 -5 10 -21 23 -35 21 -22 25 -23 36 -10 7 8 20 12 29 9 14 -6 15 -4 5 8
-10 12 -8 19 9 34 15 12 23 14 26 7 5 -17 29 -15 36 3 3 8 11 15 19 15 17 0
59 44 50 53 -3 4 -20 5 -37 1 -28 -5 -31 -3 -32 21 -2 34 -10 41 -29 25 -13
-11 -14 -10 -9 4 8 22 -3 20 -59 -9 -26 -14 -47 -21 -47 -16 0 5 10 13 21 16
17 6 19 9 8 17 -10 7 -8 9 8 5 13 -3 24 1 27 9 3 8 14 14 25 14 23 0 31 17 24
53 -6 30 -23 47 -23 24 0 -8 -7 -20 -15 -27 -8 -7 -12 -16 -9 -21 3 -5 2 -9
-1 -9 -3 0 -19 30 -36 68 -36 81 -77 142 -95 142 -9 0 -10 8 -4 31 5 18 7 36
3 42 -3 6 -1 7 5 3 7 -4 12 -2 12 3 0 6 9 11 21 11 19 0 19 1 5 16 -9 8 -16
20 -16 25 0 16 18 10 34 -12 8 -12 19 -18 25 -14 6 3 11 -1 11 -9 0 -17 34
-39 44 -29 13 13 5 42 -13 48 -29 9 -15 51 23 65 50 19 60 26 73 51 7 13 11
25 9 26 -7 8 -66 -21 -66 -32 0 -17 -31 -28 -43 -16 -6 6 -22 4 -43 -5 -39
-17 -54 -12 -54 17 0 30 -39 110 -71 147 -32 36 -36 52 -15 52 7 0 20 7 27 16
12 15 10 16 -19 9 -29 -6 -36 -3 -66 29 -18 20 -38 36 -44 36 -6 0 -16 9 -22
20 -11 21 -50 46 -50 32z m320 -412 c0 -5 -7 -10 -15 -10 -8 0 -15 5 -15 10 0
6 7 10 15 10 8 0 15 -4 15 -10z m-195 -78 c-3 -3 -11 0 -18 7 -9 10 -8 11 6 5
10 -3 15 -9 12 -12z m-85 -22 c0 -5 -5 -10 -11 -10 -5 0 -7 5 -4 10 3 6 8 10
11 10 2 0 4 -4 4 -10z m35 -90 c3 -5 1 -10 -4 -10 -6 0 -11 5 -11 10 0 6 2 10
4 10 3 0 8 -4 11 -10z m210 -280 c-3 -6 4 -10 17 -10 17 0 20 -2 9 -9 -8 -5
-20 -7 -28 -4 -15 6 -18 33 -2 33 5 0 7 -4 4 -10z"/>
<path d="M898 2883 c7 -3 16 -2 19 1 4 3 -2 6 -13 5 -11 0 -14 -3 -6 -6z"/>
<path d="M970 2880 c0 -5 5 -10 11 -10 5 0 7 5 4 10 -3 6 -8 10 -11 10 -2 0
-4 -4 -4 -10z"/>
<path d="M1096 2873 c2 -7 -2 -13 -9 -14 -7 0 1 -5 17 -9 21 -7 35 -5 50 5 19
14 19 15 -16 15 -20 0 -38 3 -41 8 -2 4 -2 1 -1 -5z"/>
<path d="M1688 2883 c7 -3 16 -2 19 1 4 3 -2 6 -13 5 -11 0 -14 -3 -6 -6z"/>
<path d="M1029 2872 c-1 -4 -1 -10 0 -14 0 -5 -4 -8 -11 -8 -9 0 -9 -3 0 -12
9 -9 8 -16 -5 -30 -15 -17 -15 -18 10 -18 15 0 27 4 27 10 0 5 12 13 27 16
l26 7 -21 17 c-12 10 -19 20 -16 22 3 3 -4 8 -16 11 -11 3 -21 2 -21 -1z"/>
<path d="M2157 2873 c-8 -8 35 -32 46 -25 5 2 0 10 -10 18 -21 15 -27 17 -36
7z"/>
<path d="M867 2849 c-10 -6 -25 -8 -33 -5 -10 4 -14 1 -12 -6 8 -22 46 -21 58
1 12 24 12 24 -13 10z"/>
<path d="M2083 2830 c4 -16 2 -32 -3 -35 -12 -8 -103 16 -112 29 -5 7 -8 7 -8
-2 0 -7 -20 -21 -45 -32 -54 -23 -78 -58 -101 -153 -16 -67 -16 -71 1 -84 22
-15 39 -17 30 -3 -3 6 -1 10 4 10 6 0 11 7 11 15 0 8 4 15 8 15 12 0 31 67 25
89 -3 12 5 26 22 39 15 12 24 26 20 32 -3 5 2 9 12 8 38 -3 64 2 58 12 -10 15
2 12 20 -6 12 -13 19 -14 28 -5 17 17 31 13 17 -4 -11 -13 -9 -15 11 -13 20 3
23 -1 21 -19 -2 -17 2 -23 14 -23 10 0 33 -14 51 -32 33 -32 63 -45 63 -27 0
5 5 9 11 9 5 0 7 -5 3 -12 -4 -6 -3 -8 4 -4 5 3 12 3 14 -2 5 -13 69 -55 75
-49 6 7 -42 57 -55 57 -4 0 -13 5 -20 12 -9 9 -5 14 21 23 26 8 31 15 29 35
-5 31 -25 54 -64 73 -28 14 -33 13 -51 -4 -16 -15 -22 -16 -31 -6 -6 8 -23 21
-38 30 -16 10 -28 26 -28 37 0 11 -5 20 -11 20 -7 0 -9 -11 -6 -30z m57 -50
c0 -5 -5 -10 -11 -10 -5 0 -7 5 -4 10 3 6 8 10 11 10 2 0 4 -4 4 -10z m85 -20
c3 -5 1 -10 -4 -10 -6 0 -11 5 -11 10 0 6 2 10 4 10 3 0 8 -4 11 -10z m-21
-76 c9 -24 8 -26 -14 -14 -11 6 -18 15 -15 21 9 14 22 11 29 -7z"/>
<path d="M962 2838 c-8 -8 -8 -15 -1 -24 8 -10 6 -12 -10 -9 -14 2 -21 -1 -21
-11 0 -11 6 -13 23 -8 28 8 27 7 32 32 5 26 -7 36 -23 20z"/>
<path d="M890 2825 c0 -9 6 -12 15 -9 8 4 15 10 15 15 0 5 -7 9 -15 9 -8 0
-15 -7 -15 -15z"/>
<path d="M2666 2774 c-5 -14 -4 -15 9 -4 17 14 19 20 6 20 -5 0 -12 -7 -15
-16z"/>
<path d="M871 2764 c0 -11 3 -14 6 -6 3 7 2 16 -1 19 -3 4 -6 -2 -5 -13z"/>
<path d="M830 2753 c0 -15 -2 -16 -10 -3 -8 12 -10 12 -15 -3 -7 -17 15 -47
34 -47 5 0 12 8 14 18 4 16 5 16 6 0 1 -25 14 -22 39 7 28 32 28 37 -2 25 -17
-6 -30 -4 -45 6 -19 14 -21 13 -21 -3z"/>
<path d="M3155 2720 c-3 -5 -1 -10 4 -10 6 0 11 5 11 10 0 6 -2 10 -4 10 -3 0
-8 -4 -11 -10z"/>
<path d="M2883 2703 c-18 -6 -16 -23 1 -23 8 0 16 -4 18 -9 5 -13 60 -1 55 13
-2 6 -13 11 -24 12 -11 1 -24 3 -29 6 -5 3 -15 3 -21 1z"/>
<path d="M2070 2696 c0 -2 7 -9 15 -16 13 -11 14 -10 9 4 -5 14 -24 23 -24 12z"/>
<path d="M1066 2655 c-11 -8 -17 -17 -14 -20 2 -3 13 4 23 15 21 23 18 25 -9
5z"/>
<path d="M970 2640 c0 -5 5 -12 10 -15 6 -4 8 -11 5 -16 -4 -5 11 -9 31 -9 21
0 35 1 33 3 -23 18 -79 44 -79 37z"/>
<path d="M1084 2604 c-18 -14 -18 -15 4 -4 12 6 22 13 22 15 0 8 -5 6 -26 -11z"/>
<path d="M950 2603 c0 -5 12 -21 28 -35 30 -29 69 -41 64 -20 -1 8 2 11 7 8 5
-3 14 0 20 7 8 11 1 13 -34 13 -29 1 -52 7 -65 19 -11 10 -20 14 -20 8z"/>
<path d="M2445 2590 c-16 -4 -41 -12 -55 -18 -29 -12 -124 -108 -98 -99 12 4
15 2 11 -9 -4 -12 3 -14 41 -11 25 2 46 0 46 -5 0 -4 8 -8 18 -8 34 0 92 -21
110 -40 11 -11 28 -18 48 -16 26 2 30 -1 26 -16 -3 -14 0 -17 14 -12 11 4 24
10 29 13 6 3 16 6 23 7 21 4 25 11 18 39 -4 14 -11 23 -16 20 -6 -3 -10 -2
-10 4 0 6 -11 6 -29 1 -29 -8 -29 -7 -21 16 5 13 7 24 4 24 -4 0 -1 6 5 13 8
11 -2 19 -51 41 -53 24 -71 27 -117 22 -67 -8 -62 0 16 24 56 18 48 26 -12 10z"/>
<path d="M943 2553 c-20 -7 -15 -19 7 -20 11 -1 20 2 20 7 0 12 -13 18 -27 13z"/>
<path d="M1071 2549 c-20 -8 -21 -11 -10 -25 11 -13 14 -13 17 -3 3 8 9 20 15
27 11 14 10 14 -22 1z"/>
<path d="M2305 2536 c-16 -13 -27 -27 -23 -31 3 -3 21 7 40 24 39 36 26 41
-17 7z"/>
<path d="M2740 2530 c-9 -6 -10 -10 -3 -10 6 0 15 5 18 10 8 12 4 12 -15 0z"/>
<path d="M1497 2512 c-46 -12 -58 -19 -63 -39 -9 -35 12 -77 34 -68 9 4 25 8
34 10 30 6 78 39 78 52 0 7 9 13 19 13 11 0 23 5 27 11 3 6 19 9 35 7 42 -6
20 12 -27 23 -49 11 -65 10 -137 -9z m3 -37 c0 -16 -17 -19 -44 -9 -22 9 -10
24 20 24 15 0 24 -6 24 -15z"/>
<path d="M905 2510 c3 -5 8 -10 11 -10 2 0 4 5 4 10 0 6 -5 10 -11 10 -5 0 -7
-4 -4 -10z"/>
<path d="M936 2495 c-3 -8 -1 -15 4 -15 6 0 10 7 10 15 0 8 -2 15 -4 15 -2 0
-6 -7 -10 -15z"/>
<path d="M971 2476 c-31 -23 -32 -25 -13 -35 33 -18 62 -13 72 12 5 12 9 16 9
9 2 -31 -19 -52 -47 -46 -25 5 -26 4 -9 -10 21 -17 16 -53 -8 -53 -8 0 -15 4
-15 8 0 4 -16 6 -35 4 -19 -2 -33 0 -30 5 7 12 -41 29 -66 23 -15 -4 -20 -3
-15 5 4 7 16 12 26 12 10 0 22 5 26 12 4 7 3 8 -4 4 -7 -4 -12 -2 -12 5 0 8
-3 9 -13 0 -11 -8 -19 -6 -36 8 -24 21 -48 18 -68 -8 -18 -24 -16 -49 7 -68
20 -18 29 -50 10 -38 -13 8 -13 5 2 -36 6 -19 19 -39 27 -46 12 -10 13 -12 2
-13 -11 0 -11 -3 -1 -15 11 -13 10 -18 -2 -28 -24 -19 -52 -67 -39 -67 6 0 11
-9 11 -20 0 -20 1 -20 31 2 26 19 31 20 39 8 6 -10 10 -11 10 -3 0 7 9 17 21
24 19 10 27 4 75 -46 29 -32 51 -62 48 -66 -3 -5 2 -12 10 -15 9 -3 16 -10 16
-16 0 -5 -4 -6 -10 -3 -6 4 -8 -6 -6 -27 3 -18 5 -37 5 -41 2 -20 21 7 21 29
0 36 14 30 76 -30 30 -30 68 -57 83 -61 22 -5 31 -14 36 -38 10 -42 12 -202 3
-224 -3 -10 -7 -14 -7 -10 -1 5 -15 -3 -31 -17 -58 -48 -158 -59 -190 -21 -7
8 -22 15 -34 15 -12 0 -27 5 -34 12 -9 9 -12 9 -12 1 0 -13 52 -53 68 -53 6 0
14 -5 18 -11 5 -9 -1 -10 -20 -5 -25 6 -27 5 -21 -15 4 -12 3 -24 -3 -28 -5
-3 -12 -16 -16 -28 -6 -18 -2 -23 18 -29 13 -3 33 -1 44 5 13 7 29 8 44 2 19
-7 29 -4 47 15 14 15 21 32 18 44 -3 10 1 24 9 31 8 6 14 8 14 4 0 -4 17 9 38
29 27 27 38 33 40 21 2 -8 8 -15 14 -15 6 0 8 9 5 20 -3 11 -1 23 4 26 5 3 7
9 4 14 -3 4 2 10 10 13 9 4 12 1 8 -9 -9 -23 16 -16 45 14 27 27 44 33 58 20
4 -5 3 -8 -2 -8 -5 0 -10 -12 -11 -27 l-1 -27 16 22 17 21 49 -30 c26 -17 51
-39 53 -50 4 -12 11 -18 20 -15 8 4 11 1 7 -5 -4 -7 0 -9 14 -5 24 8 102 -21
99 -37 -1 -7 9 -11 24 -9 25 2 26 0 27 -55 1 -37 6 -60 16 -65 7 -4 17 -19 20
-32 3 -14 15 -28 27 -31 11 -4 18 -9 15 -12 -3 -3 0 -15 6 -27 10 -18 9 -19
-4 -9 -9 8 -4 -11 13 -46 16 -33 32 -61 36 -64 18 -10 83 -17 83 -9 0 5 -28
29 -62 53 -65 45 -63 63 4 40 16 -6 34 -8 39 -5 5 3 9 -3 9 -13 0 -15 2 -16
10 -3 16 24 12 29 -27 35 -63 11 -67 13 -52 31 8 10 21 13 38 10 l26 -6 -25
15 c-33 19 -60 19 -60 0 0 -8 -8 -15 -17 -14 -11 0 -13 3 -5 6 6 2 9 9 6 15
-4 6 0 14 7 19 10 6 6 9 -13 9 -28 0 -39 22 -18 35 6 3 7 -1 4 -9 -7 -19 7
-21 25 -3 11 9 13 9 7 0 -5 -8 -1 -13 9 -13 9 0 13 -4 10 -10 -3 -5 -1 -10 4
-10 6 0 11 4 11 8 0 5 11 14 25 20 21 10 25 9 25 -3 0 -8 -7 -15 -16 -15 -9 0
-14 -5 -12 -12 8 -24 27 -19 43 11 17 33 43 51 74 51 15 0 19 4 14 18 -6 16
-5 16 13 0 11 -10 30 -19 43 -21 12 -2 26 -8 29 -14 4 -6 14 -13 22 -15 8 -2
23 -11 34 -20 31 -28 51 -23 52 15 3 101 15 275 20 295 4 12 20 30 36 38 16 8
26 19 23 24 -3 5 7 13 22 16 16 4 28 3 30 -3 4 -11 53 32 53 46 0 11 -50 55
-93 80 -42 25 -67 48 -67 61 0 4 16 15 35 24 19 9 35 22 35 28 0 5 7 8 15 4 8
-3 15 -1 15 4 0 6 -4 10 -9 10 -5 0 -12 14 -16 31 -5 20 -16 34 -33 40 -24 9
-25 10 -6 23 10 7 36 19 57 25 20 7 37 16 37 21 0 4 9 10 20 13 25 6 25 0 3
-26 -10 -11 -12 -17 -5 -13 11 7 13 3 16 -33 1 -16 46 -26 46 -11 0 18 18 10
23 -10 6 -25 30 -18 47 16 7 13 20 24 27 24 8 0 11 5 8 10 -3 6 -1 10 5 10 6
0 8 5 4 11 -4 7 -1 10 7 7 8 -3 21 0 29 8 19 15 72 30 68 18 -1 -5 8 -25 20
-44 14 -23 22 -29 22 -17 0 19 13 22 41 6 14 -7 19 -19 17 -45 -2 -35 -15 -43
-37 -21 -11 10 -13 9 -8 -5 7 -19 -24 -50 -44 -45 -8 2 -10 2 -6 -1 5 -2 -8
-19 -28 -38 -29 -26 -35 -38 -30 -56 5 -17 4 -19 -4 -8 -8 11 -14 5 -29 -30
l-19 -45 56 -28 c55 -27 74 -44 65 -58 -2 -4 -12 -6 -22 -4 -9 2 -21 4 -26 4
-5 1 -3 7 3 14 9 11 3 14 -31 15 -23 1 -61 9 -84 18 -37 14 -46 14 -85 1 -24
-8 -44 -20 -44 -27 0 -6 -10 -19 -21 -28 -12 -9 -25 -34 -28 -54 -7 -38 -1
-41 39 -20 5 3 21 7 35 8 23 3 22 1 -15 -31 -30 -25 -34 -32 -18 -28 12 3 32
-2 45 -11 27 -19 54 -20 88 -3 14 7 41 14 60 16 19 2 44 8 54 13 19 10 19 9
-1 -23 -33 -53 -80 -81 -130 -77 -24 2 -43 0 -43 -3 0 -19 33 -81 53 -102 57
-56 95 -234 63 -297 -9 -18 -16 -38 -15 -44 0 -6 9 7 20 29 26 57 24 137 -7
235 -21 68 -23 84 -12 98 11 14 11 15 -6 9 -15 -6 -17 -4 -13 13 3 11 1 20 -4
20 -4 0 -6 7 -3 15 4 8 10 15 16 15 5 0 7 -4 4 -8 -3 -5 17 -4 45 1 41 8 53
15 61 36 5 14 7 36 5 49 -3 16 6 36 29 63 32 39 35 64 10 81 -7 5 -5 8 5 8 26
0 33 42 9 59 -11 7 -20 17 -20 22 0 14 22 10 42 -7 17 -16 19 -15 34 21 11 27
12 41 5 48 -23 23 -12 39 20 32 20 -5 29 -4 25 3 -9 15 39 43 52 30 7 -7 16
-6 29 2 16 10 16 11 -4 7 -13 -3 -23 0 -23 5 0 7 -18 9 -47 5 -27 -2 -40 -3
-30 0 9 2 18 9 18 14 1 5 2 15 3 22 1 14 65 21 115 12 26 -5 31 -9 20 -16 -11
-7 -11 -9 4 -9 19 0 24 -30 5 -31 -7 0 -3 -4 10 -10 13 -5 21 -13 17 -19 -4
-6 -15 -4 -30 6 -13 8 -25 11 -28 7 -5 -9 21 -50 28 -45 15 7 26 0 21 -15 -7
-16 31 -61 47 -55 5 1 6 -2 3 -7 -4 -5 10 -31 31 -58 45 -59 58 -112 54 -233
-3 -104 -10 -126 -47 -140 -21 -8 -29 -5 -55 23 -17 17 -34 31 -37 29 -4 -2
-9 5 -11 15 -6 31 -22 43 -57 43 -24 0 -34 -5 -34 -16 0 -8 -4 -12 -10 -9 -5
3 -10 -1 -10 -10 0 -11 -6 -15 -19 -10 -32 10 -31 -21 2 -66 17 -24 35 -47 40
-50 5 -3 -5 -6 -21 -5 -22 1 -29 5 -27 17 3 13 -5 16 -48 13 -28 -1 -53 -7
-55 -12 -4 -13 34 -25 50 -17 7 4 5 0 -6 -9 -16 -13 -20 -13 -33 0 -22 22 -30
17 -31 -19 -2 -44 10 -63 29 -44 8 7 19 12 26 10 6 -2 13 4 16 14 4 17 5 17 6
-1 1 -15 3 -16 16 -6 11 9 19 10 26 3 7 -7 2 -12 -15 -17 -14 -3 -26 -13 -26
-22 0 -8 -4 -13 -8 -10 -16 10 -29 -28 -17 -52 11 -20 14 -21 25 -7 13 15 42
20 53 9 3 -4 -1 -17 -10 -30 -8 -13 -13 -34 -10 -47 6 -22 -4 -51 -17 -47 -21
7 -111 -14 -128 -30 -18 -16 -23 -17 -34 -5 -12 12 -18 10 -38 -9 -15 -16 -31
-22 -47 -19 -19 4 -25 0 -26 -16 -2 -25 14 -28 20 -3 4 16 5 16 6 0 1 -20 16
-24 26 -8 10 16 37 11 41 -8 4 -13 16 -18 44 -18 22 -1 46 -6 53 -12 22 -19
81 17 85 51 2 16 -2 34 -8 42 -13 15 -4 39 11 30 5 -3 28 3 52 13 41 18 44 22
42 54 -1 20 -6 42 -11 49 -7 12 -5 12 9 0 9 -7 17 -24 17 -37 0 -31 15 -30 46
1 30 30 38 31 64 5 21 -21 21 -22 25 31 1 22 87 129 103 129 9 0 5 8 -9 19
l-24 19 28 22 c15 12 25 25 22 30 -2 4 11 24 30 44 19 21 35 44 35 52 0 26 51
84 74 84 11 1 31 6 42 13 19 10 20 14 8 25 -8 7 -14 8 -14 2 0 -5 -7 -10 -15
-10 -18 0 -18 1 -5 34 6 18 14 24 25 20 10 -4 15 -2 13 6 -2 6 7 16 20 21 17
6 22 5 22 -6 0 -17 26 -20 35 -5 4 6 24 22 46 36 22 13 39 32 39 42 0 10 5 23
12 30 9 9 8 12 -6 12 -9 0 -26 -4 -36 -10 -14 -8 -19 -5 -23 12 -5 19 -7 19
-22 4 -9 -8 -26 -14 -38 -12 -12 3 -25 5 -29 5 -17 2 -7 21 11 21 10 0 22 7
25 16 8 21 8 24 -4 24 -5 0 -10 -7 -10 -15 0 -21 -20 -19 -20 3 -1 13 -4 11
-15 -8 -20 -35 -18 -45 8 -59 12 -6 15 -10 6 -7 -9 2 -22 -5 -30 -16 -23 -31
-74 -58 -112 -58 -28 0 -35 3 -31 15 4 8 2 15 -3 15 -6 0 -40 27 -76 60 -48
44 -65 55 -62 40 6 -33 -5 -23 -26 25 -11 24 -21 69 -23 100 -1 31 -7 59 -12
64 -11 10 -107 31 -142 31 -19 0 -23 3 -13 9 8 5 -5 7 -35 4 -33 -3 -44 -1
-35 5 10 7 11 14 2 31 -8 14 -8 21 -1 21 5 0 10 7 10 15 0 9 -6 12 -15 9 -20
-8 -19 1 2 33 l18 26 -27 -17 c-20 -13 -28 -14 -34 -5 -4 7 -3 9 4 5 6 -3 13
-2 17 3 3 5 -3 14 -12 20 -10 6 -12 11 -5 11 15 0 16 30 1 30 -6 0 -8 8 -4 19
9 31 -6 32 -89 5 -55 -17 -88 -22 -116 -18 -37 6 -39 5 -46 -22 -4 -16 -12
-32 -17 -36 -14 -9 -38 2 -31 14 4 6 -2 8 -16 3 -12 -4 -32 -8 -45 -10 -13 -1
-31 -9 -39 -18 -9 -8 -29 -18 -45 -22 -17 -4 -31 -14 -34 -26 -5 -17 -11 -19
-43 -13 -21 4 -46 16 -56 28 l-17 21 6 -22 c4 -17 1 -23 -12 -23 -17 0 -17 -1
-2 -18 9 -10 14 -27 11 -39 -5 -18 -11 -20 -47 -16 -32 3 -38 2 -27 -6 13 -9
12 -11 -5 -12 l-20 0 20 -9 c11 -5 14 -9 8 -9 -7 -1 -13 -12 -13 -25 0 -26
-24 -51 -40 -41 -5 3 -10 13 -10 21 0 8 -6 14 -14 14 -8 0 -16 6 -19 13 -3 9
-9 9 -27 -1 -28 -17 -32 -12 -36 38 -2 29 2 43 12 47 7 3 11 10 8 15 -4 7 -10
4 -16 -6 -5 -9 -18 -16 -28 -16 -11 0 -20 -6 -20 -14 0 -65 -139 -59 -183 7
-17 26 -16 85 2 130 14 35 14 77 1 77 -5 0 -10 5 -10 11 0 13 -20 34 -40 42
-9 3 -4 6 11 6 15 1 29 7 32 15 4 10 -5 13 -37 12 -33 -1 -42 -5 -43 -20 -1
-10 6 -20 16 -23 15 -4 18 -14 16 -66 -2 -34 -6 -85 -10 -113 -6 -42 -4 -53
10 -65 80 -63 117 -127 87 -151 -9 -7 -13 -8 -10 -3 4 6 -2 12 -13 12 -28 2
-23 -14 7 -21 15 -4 24 -9 21 -12 -3 -3 -2 -18 3 -34 l8 -28 -61 5 c-35 3 -71
13 -82 22 -20 16 -20 16 -1 -6 14 -17 31 -23 60 -24 23 -1 52 -4 66 -8 24 -7
24 -8 -7 -12 -19 -3 -30 -2 -26 4 3 6 1 7 -5 3 -6 -4 -8 -14 -5 -23 5 -13 2
-15 -11 -10 -10 4 -20 7 -22 7 -3 0 -2 6 2 13 6 9 5 9 -7 0 -12 -10 -21 -6
-47 18 -18 17 -32 24 -32 18 0 -7 -7 -4 -16 7 -8 10 -13 14 -9 7 7 -16 -31
-37 -40 -23 -5 8 -11 8 -19 1 -16 -14 -76 14 -76 34 0 9 -6 12 -15 9 -10 -4
-15 0 -15 13 0 27 -30 84 -40 78 -5 -3 0 -26 10 -51 11 -25 20 -48 20 -51 0
-3 -27 18 -60 47 -33 29 -60 59 -60 67 0 24 -25 44 -39 30 -9 -9 -11 -8 -6 5
4 11 -1 21 -14 30 -12 7 -21 19 -21 26 0 7 -5 10 -11 6 -6 -3 -27 10 -47 29
-21 20 -41 36 -47 37 -5 0 -10 14 -10 30 0 17 -3 30 -6 30 -3 0 -20 14 -37 30
-18 17 -29 30 -25 30 4 0 -2 7 -14 15 -30 21 -36 52 -9 59 35 9 78 7 71 -4 -4
-6 -11 -8 -16 -5 -5 4 -17 0 -28 -7 -17 -12 -16 -16 25 -57 l44 -44 0 35 c0
46 18 95 36 102 9 3 12 11 9 16 -4 6 -2 16 3 23 5 7 17 29 25 49 15 36 15 38
-14 77 -16 23 -33 41 -37 41 -5 0 -23 -11 -41 -24z m-152 -242 c-12 -15 -14
-14 -20 3 -3 10 -2 27 4 38 10 19 10 19 20 -2 7 -16 6 -27 -4 -39z m1921 -294
c0 -5 -2 -10 -4 -10 -3 0 -8 5 -11 10 -3 6 -1 10 4 10 6 0 11 -4 11 -10z
m-988 -59 c13 -11 41 -23 63 -27 33 -6 37 -5 32 10 -8 20 -9 20 38 -4 21 -11
55 -23 74 -26 20 -4 44 -16 53 -28 15 -19 17 -19 23 -3 7 18 35 24 35 7 0 -5
7 -7 15 -4 8 4 12 11 8 18 -3 6 -2 7 3 3 5 -5 9 -14 9 -20 0 -12 -68 -67 -84
-67 -4 0 -6 -11 -3 -25 2 -15 0 -25 -8 -25 -6 0 -9 8 -6 18 3 9 1 24 -4 32 -9
13 -11 13 -20 0 -12 -19 -13 -37 0 -45 5 -3 7 -12 4 -20 -7 -18 33 -75 52 -75
9 0 12 -5 8 -12 -4 -7 -3 -8 4 -4 8 5 8 15 1 33 -12 33 4 52 75 89 55 29 130
34 153 11 10 -10 5 -12 -26 -9 -22 2 -51 -3 -67 -11 -34 -18 -127 -111 -101
-101 10 3 17 1 17 -6 0 -6 4 -9 9 -5 13 7 24 -12 17 -30 -4 -12 -14 -11 -62 5
-70 24 -67 24 -54 0 15 -28 9 -60 -15 -88 -20 -24 -66 -52 -84 -52 -14 0 -55
42 -59 60 -2 8 -8 17 -13 18 -5 2 -9 9 -9 15 0 7 -14 18 -31 26 -27 12 -29 15
-15 30 13 14 13 19 0 35 -8 11 -14 32 -14 46 0 15 -15 75 -34 133 -39 123 -36
139 16 98z m958 14 c0 -2 -10 -9 -22 -15 -22 -11 -22 -10 -4 4 21 17 26 19 26
11z m-90 -59 c0 -2 -8 -10 -17 -17 -16 -13 -17 -12 -4 4 13 16 21 21 21 13z
m75 -55 c-7 -6 -35 27 -35 41 0 7 9 2 20 -12 10 -14 17 -26 15 -29z m-549
-248 c-10 -10 -19 5 -10 18 6 11 8 11 12 0 2 -7 1 -15 -2 -18z m-126 -103 c0
-5 -7 -10 -15 -10 -8 0 -15 5 -15 10 0 6 7 10 15 10 8 0 15 -4 15 -10z m63
-15 c1 -5 -6 -11 -15 -13 -11 -2 -18 3 -18 13 0 17 30 18 33 0z m1012 -54 c-3
-12 -15 -26 -26 -32 -18 -9 -19 -8 -7 10 7 12 16 21 20 21 5 0 8 8 8 17 0 9 3
14 6 10 3 -3 3 -15 -1 -26z m-175 -161 c0 -5 -5 -10 -11 -10 -5 0 -7 5 -4 10
3 6 8 10 11 10 2 0 4 -4 4 -10z m-265 -230 c-3 -5 -12 -10 -18 -10 -7 0 -6 4
3 10 19 12 23 12 15 0z"/>
<path d="M1804 1638 l-19 -21 28 18 c28 18 33 25 19 25 -5 0 -17 -10 -28 -22z"/>
<path d="M1885 1510 c-3 -6 1 -7 9 -4 15 6 21 -6 17 -29 -1 -5 3 -6 9 -2 7 4
7 12 0 26 -12 21 -25 25 -35 9z"/>
<path d="M2614 2469 c0 -11 6 -19 13 -19 7 0 13 6 13 14 0 8 -6 16 -13 19 -8
3 -13 -3 -13 -14z"/>
<path d="M1607 2430 c-49 -15 -91 -31 -94 -34 -14 -14 54 0 82 16 29 17 55 25
42 12 -9 -10 17 -32 31 -26 8 2 18 16 23 29 5 13 13 22 18 18 5 -3 12 -1 16 5
10 16 -24 11 -118 -20z"/>
<path d="M3286 2417 c7 -19 -17 -36 -55 -39 -55 -4 -58 -51 -8 -118 15 -20 28
-25 62 -25 27 0 41 3 38 10 -4 5 5 -2 20 -17 30 -32 40 -34 57 -13 17 20 39
19 78 -5 44 -27 40 -14 -11 43 -28 29 -55 49 -75 53 -18 4 -29 11 -25 17 4 6
-2 8 -15 5 -30 -8 -27 6 6 31 l27 20 -42 17 c-24 9 -43 21 -43 26 0 4 -4 8
-10 8 -5 0 -7 -6 -4 -13z m89 -138 c5 -5 20 -9 33 -9 41 0 18 -25 -26 -28 -33
-2 -42 0 -42 12 0 9 -4 16 -10 16 -5 0 -10 7 -10 16 0 11 6 14 23 9 12 -4 26
-11 32 -16z"/>
<path d="M2255 2382 c-4 -11 3 -24 22 -39 25 -20 29 -21 44 -7 12 11 19 12 24
4 4 -7 17 -4 39 9 28 18 39 19 100 10 38 -5 72 -12 77 -15 5 -3 9 -1 9 4 0 5
-48 17 -107 25 -193 28 -200 28 -208 9z"/>
<path d="M1420 2367 c1 -19 22 -41 53 -55 45 -19 47 -14 11 22 -38 38 -64 52
-64 33z"/>
<path d="M1692 2357 c-12 -13 -22 -27 -22 -33 0 -5 6 -2 13 7 7 9 20 18 29 20
11 3 15 9 10 17 -6 9 -14 6 -30 -11z"/>
<path d="M1817 2353 c-4 -3 -7 -15 -7 -26 0 -38 -42 -146 -59 -150 -15 -4 -15
-5 0 -6 12 -1 18 -16 23 -62 6 -49 10 -58 20 -50 8 7 16 24 19 39 3 15 18 41
34 57 15 17 26 35 25 41 -1 7 5 15 14 18 9 3 14 13 11 21 -4 9 -1 12 9 8 7 -3
14 0 14 7 0 8 10 9 30 5 16 -4 39 -3 51 0 l21 7 -21 19 c-12 11 -26 17 -31 14
-5 -3 -33 10 -62 30 -51 34 -77 42 -91 28z"/>
<path d="M650 2254 c0 -8 5 -12 10 -9 6 3 10 10 10 16 0 5 -4 9 -10 9 -5 0
-10 -7 -10 -16z"/>
<path d="M1330 2026 c0 -8 7 -17 16 -20 24 -9 54 -7 54 3 0 5 8 12 18 15 9 2
1 2 -19 -1 -21 -3 -40 0 -43 6 -10 16 -26 14 -26 -3z"/>
<path d="M2670 2019 c0 -5 5 -7 10 -4 6 3 10 8 10 11 0 2 -4 4 -10 4 -5 0 -10
-5 -10 -11z"/>
<path d="M3453 2012 c-24 -4 -30 -16 -13 -27 5 -3 19 0 31 8 23 17 15 25 -18
19z"/>
<path d="M2590 2000 c8 -5 20 -10 25 -10 6 0 3 5 -5 10 -8 5 -19 10 -25 10 -5
0 -3 -5 5 -10z"/>
<path d="M1214 1929 c-4 -7 -3 -9 4 -5 5 3 13 0 15 -6 4 -9 6 -10 6 -1 1 17
-16 25 -25 12z"/>
<path d="M3043 1917 c18 -15 18 -15 0 -20 -13 -3 -10 -5 8 -6 29 -1 98 -48
122 -81 9 -14 20 -19 28 -15 8 5 10 4 5 -3 -4 -6 -2 -21 5 -33 10 -20 12 -21
21 -5 5 9 6 26 2 39 -12 38 -54 98 -65 92 -5 -4 -16 -1 -24 5 -8 7 -15 9 -15
4 0 -4 -6 0 -13 9 -6 10 -30 20 -52 23 -37 5 -38 4 -22 -9z"/>
<path d="M1004 1847 c-24 -14 -76 -72 -93 -104 -6 -12 -11 -35 -11 -52 0 -24
4 -31 19 -31 11 0 21 3 24 8 2 4 2 1 0 -7 -2 -8 2 -11 11 -8 10 4 13 1 9 -9
-3 -7 -1 -14 5 -14 12 0 24 29 17 40 -3 5 0 12 6 16 8 4 9 3 5 -4 -9 -15 -1
-15 27 -1 20 11 20 10 -3 -16 l-25 -28 25 16 c26 18 65 23 55 8 -3 -5 -1 -12
5 -16 6 -3 13 1 16 9 3 9 10 16 16 16 5 0 6 -4 3 -10 -8 -13 1 -13 26 0 14 8
19 21 19 50 0 44 20 66 21 23 0 -24 1 -25 9 -8 9 21 3 64 -11 79 -4 5 -21 -1
-37 -13 -53 -37 -79 -19 -36 24 22 22 24 29 13 36 -20 13 -90 10 -115 -4z"/>
<path d="M1184 1685 c-3 -8 -4 -20 -2 -27 3 -7 7 -1 10 15 6 29 1 36 -8 12z"/>
<path d="M1437 1532 c-16 -7 -16 -9 -2 -27 9 -11 14 -14 10 -7 -3 6 -2 12 3
12 5 0 9 7 9 15 0 8 -1 15 -1 14 -1 0 -9 -4 -19 -7z"/>
<path d="M1344 1510 c0 -13 4 -16 10 -10 7 7 7 13 0 20 -6 6 -10 3 -10 -10z"/>
<path d="M850 1495 c0 -3 5 -15 10 -25 9 -16 15 -17 40 -8 36 12 39 28 6 28
-13 0 -31 3 -40 6 -9 3 -16 3 -16 -1z"/>
<path d="M3282 1467 c2 -16 11 -23 31 -25 38 -5 36 23 -4 37 -28 10 -30 9 -27
-12z"/>
<path d="M1510 1456 c0 -2 7 -9 15 -16 9 -7 15 -8 15 -2 0 5 -7 12 -15 16 -8
3 -15 4 -15 2z"/>
<path d="M1430 1430 c0 -17 -47 -43 -52 -29 -4 13 -100 27 -123 19 -10 -4 -19
-14 -21 -24 -2 -16 -1 -16 23 -1 14 10 23 13 20 9 -3 -5 16 -7 41 -5 34 2 49
-1 58 -13 10 -15 12 -15 17 -1 4 8 12 12 20 9 20 -7 43 24 29 38 -9 9 -12 8
-12 -2z"/>
<path d="M2563 1408 c-1 -10 3 -18 9 -16 18 6 21 25 5 31 -8 3 -13 -3 -14 -15z"/>
<path d="M1146 1393 c-13 -13 -5 -25 9 -13 18 15 42 3 26 -13 -17 -17 -13 -37
7 -37 14 0 15 2 2 10 -8 5 -11 12 -7 17 4 4 17 2 28 -5 19 -12 19 -12 4 11 -8
13 -13 25 -11 28 2 2 -8 5 -24 6 -15 1 -30 -1 -34 -4z"/>
<path d="M1351 1341 c-6 -9 -9 -10 -5 -3 4 10 1 13 -12 10 -11 -2 -18 -9 -17
-15 2 -11 -29 -12 -37 -1 -3 4 -20 0 -39 -9 l-33 -16 24 -13 c12 -7 17 -13 11
-14 -18 0 -16 -30 2 -30 8 0 15 8 15 19 0 15 10 20 50 25 28 4 55 4 61 0 7 -4
9 1 5 14 -4 11 -2 23 4 27 5 3 10 10 10 14 0 14 -27 8 -39 -8z"/>
<path d="M1436 1345 c4 -8 11 -15 16 -15 6 0 5 6 -2 15 -7 8 -14 15 -16 15 -2
0 -1 -7 2 -15z"/>
<path d="M1072 1308 c5 -15 28 -23 28 -10 0 5 -7 13 -16 16 -10 4 -14 1 -12
-6z"/>
<path d="M1450 1310 c0 -19 -38 -37 -73 -36 -21 1 -24 -1 -16 -16 13 -25 41
-37 64 -27 13 5 15 8 5 8 -9 1 -5 6 10 14 28 14 38 43 21 60 -8 8 -11 7 -11
-3z"/>
<path d="M2051 1249 c-49 -20 -81 -50 -81 -77 0 -19 -9 -33 -30 -47 -18 -12
-30 -29 -30 -42 0 -26 25 -31 34 -7 4 10 14 14 26 11 11 -3 18 -2 15 3 -3 4 4
10 15 13 24 6 38 -11 16 -19 -13 -5 -13 -8 -2 -19 9 -9 28 -12 57 -8 33 3 40
2 29 -6 -23 -17 67 -7 113 12 49 21 47 31 -5 23 -38 -6 -41 -5 -25 6 17 13 13
16 -38 32 -31 10 -55 19 -53 21 2 2 27 5 56 6 28 2 52 7 52 12 0 6 8 3 19 -7
16 -15 19 -15 31 -1 11 13 9 20 -16 46 -16 17 -41 37 -56 45 -30 16 -91 17
-127 3z m72 -151 c12 -13 27 -22 32 -20 6 2 4 -2 -2 -9 -10 -10 -18 -10 -35
-1 -13 6 -35 16 -50 22 -37 13 -36 30 2 30 18 0 39 -9 53 -22z"/>
<path d="M1814 1188 c-4 -7 -4 -10 1 -6 4 4 14 0 21 -10 7 -9 14 -12 14 -6 0
6 -6 17 -14 23 -11 9 -16 9 -22 -1z"/>
<path d="M1517 1170 c8 -31 23 -34 23 -6 0 16 -6 26 -14 26 -9 0 -12 -7 -9
-20z"/>
<path d="M1590 1080 c0 -5 5 -10 10 -10 6 0 10 5 10 10 0 6 -4 10 -10 10 -5 0
-10 -4 -10 -10z"/>
<path d="M2427 1083 c-11 -3 -16 -11 -13 -19 3 -9 -8 -20 -32 -31 -36 -17 -49
-49 -29 -69 4 -4 7 1 7 12 0 11 3 15 8 8 4 -7 18 -8 39 -2 26 7 32 13 29 31
-2 12 2 28 8 36 9 12 8 13 -4 6 -9 -5 -8 0 4 13 19 22 17 24 -17 15z"/>
<path d="M2970 1043 c0 -4 5 -15 10 -23 8 -13 10 -13 10 2 0 9 -4 20 -10 23
-5 3 -10 3 -10 -2z"/>
<path d="M1987 926 c-4 -9 -14 -16 -22 -16 -9 0 -14 -4 -11 -9 3 -4 -6 -6 -19
-3 -14 2 -25 0 -25 -5 0 -5 11 -10 25 -11 13 -1 28 -2 32 -3 40 -7 60 17 39
46 -12 16 -13 16 -19 1z"/>
<path d="M1838 879 c-10 -5 -18 -14 -18 -19 0 -11 28 -9 48 3 7 5 10 13 7 18
-8 11 -15 11 -37 -2z"/>
<path d="M1640 860 c0 -5 5 -10 11 -10 5 0 7 5 4 10 -3 6 -8 10 -11 10 -2 0
-4 -4 -4 -10z"/>
<path d="M280 1180 c0 -5 5 -10 10 -10 6 0 10 5 10 10 0 6 -4 10 -10 10 -5 0
-10 -4 -10 -10z"/>
<path d="M810 511 c0 -13 23 -28 44 -28 16 0 15 3 -5 18 -26 20 -39 24 -39 10z"/>
<path d="M1338 4163 c7 -3 16 -2 19 1 4 3 -2 6 -13 5 -11 0 -14 -3 -6 -6z"/>
<path d="M1506 4142 c-8 -16 -22 -35 -31 -42 -15 -12 -13 -16 22 -37 21 -12
46 -23 56 -23 9 0 17 -6 17 -13 0 -7 7 -22 15 -33 14 -18 15 -16 9 21 -4 22
-7 42 -8 45 0 3 4 5 9 5 6 0 9 -3 8 -7 -2 -4 6 -12 16 -18 19 -10 19 -9 3 30
-19 44 -24 47 -45 25 -18 -17 -27 -10 -27 21 0 29 -10 54 -21 54 -5 0 -15 -13
-23 -28z"/>
<path d="M2944 4050 c0 -11 6 -15 18 -12 10 2 18 8 18 12 0 4 -8 10 -18 12
-12 3 -18 -1 -18 -12z"/>
<path d="M3048 4015 c-4 -17 -1 -25 8 -25 8 0 14 11 14 25 0 14 -4 25 -9 25
-5 0 -11 -11 -13 -25z"/>
<path d="M325 4010 c-3 -5 -2 -10 4 -10 5 0 13 5 16 10 3 6 2 10 -4 10 -5 0
-13 -4 -16 -10z"/>
<path d="M349 3918 c-12 -23 -12 -23 10 -4 23 21 26 26 11 26 -5 0 -15 -10
-21 -22z"/>
<path d="M437 3933 c-14 -13 -7 -53 9 -53 13 0 14 3 4 15 -7 8 -10 22 -6 30 6
16 3 19 -7 8z"/>
<path d="M500 3926 c0 -2 7 -7 16 -10 8 -3 12 -2 9 4 -6 10 -25 14 -25 6z"/>
<path d="M290 3916 c0 -2 7 -7 16 -10 8 -3 12 -2 9 4 -6 10 -25 14 -25 6z"/>
<path d="M896 3887 c3 -10 9 -15 12 -12 3 3 0 11 -7 18 -10 9 -11 8 -5 -6z"/>
<path d="M556 3852 c-3 -5 1 -9 9 -9 8 0 12 4 9 9 -3 4 -7 8 -9 8 -2 0 -6 -4
-9 -8z"/>
<path d="M855 3840 c-3 -5 -1 -10 4 -10 6 0 11 5 11 10 0 6 -2 10 -4 10 -3 0
-8 -4 -11 -10z"/>
<path d="M1400 3835 c-14 -8 -20 -14 -15 -14 6 0 21 6 35 14 14 8 21 14 15 14
-5 0 -21 -6 -35 -14z"/>
<path d="M537 3809 c7 -7 15 -10 18 -7 3 3 -2 9 -12 12 -14 6 -15 5 -6 -5z"/>
<path d="M520 3740 c0 -5 5 -10 10 -10 6 0 10 5 10 10 0 6 -4 10 -10 10 -5 0
-10 -4 -10 -10z"/>
<path d="M2917 3674 c-10 -10 -9 -42 2 -48 5 -3 11 0 14 7 6 16 -7 50 -16 41z"/>
<path d="M306 2181 c-19 -21 -12 -28 13 -12 7 5 12 14 9 21 -2 7 -10 4 -22 -9z"/>
<path d="M1380 290 c-7 -4 -12 -11 -13 -16 -1 -5 -12 -8 -25 -6 -21 3 -22 1
-12 -18 7 -13 7 -20 0 -20 -5 0 -10 -10 -10 -22 0 -17 -3 -19 -9 -9 -10 15
-15 8 -25 -32 -4 -15 -10 -25 -15 -22 -5 2 -17 -8 -27 -23 -25 -38 -37 -49
-50 -45 -6 2 -17 -3 -24 -12 -7 -8 -20 -15 -29 -15 -21 0 -53 53 -45 74 3 9 2
16 -3 16 -5 0 -15 -16 -21 -35 -12 -31 -41 -62 -88 -92 -15 -9 7 -12 113 -12
l131 -1 22 35 c12 19 26 32 32 29 7 -4 4 -10 -6 -16 -8 -5 -20 -18 -26 -28
-10 -19 -6 -20 146 -20 155 0 157 0 139 20 -9 10 -20 19 -24 18 -23 -3 -42 6
-66 30 -19 18 -26 21 -22 10 13 -36 -4 -17 -23 24 -12 29 -19 36 -20 23 -1
-19 -2 -19 -20 4 -21 25 -25 57 -11 80 5 7 33 19 62 26 50 11 52 13 26 20 -25
7 -26 9 -11 20 15 11 15 13 -9 17 -14 3 -31 2 -37 -2z"/>
</g>
</svg>
